Pacifico-Bold.ufo
<glyph name="numbersign" format="1">
  <advance width="577"/>
  <unicode hex="0023"/>
  <outline>
    <contour>
      <point x="318" y="235" type="line"/>
      <point x="355" y="322" type="line"/>
      <point x="446" y="322" type="line"/>
      <point x="413" y="235" type="line"/>
    </contour>
    <contour>
      <point x="440" y="532" type="curve" smooth="yes"/>
      <point x="440" y="553"/>
      <point x="426" y="560"/>
      <point x="407" y="560" type="curve" smooth="yes"/>
      <point x="377" y="560"/>
      <point x="354" y="539"/>
      <point x="340" y="507" type="curve" smooth="yes"/>
      <point x="298" y="409" type="line"/>
      <point x="233" y="409"/>
      <point x="201" y="409"/>
      <point x="195" y="364" type="curve" smooth="yes"/>
      <point x="195" y="358" type="line" smooth="yes"/>
      <point x="195" y="330"/>
      <point x="224" y="323"/>
      <point x="264" y="322" type="curve"/>
      <point x="224" y="234" type="line"/>
      <point x="168" y="233"/>
      <point x="141" y="231"/>
      <point x="134" y="191" type="curve" smooth="yes"/>
      <point x="134" y="188"/>
      <point x="133" y="186"/>
      <point x="133" y="184" type="curve" smooth="yes"/>
      <point x="133" y="162"/>
      <point x="155" y="154"/>
      <point x="189" y="152" type="curve"/>
      <point x="143" y="49" type="line" smooth="yes"/>
      <point x="139" y="39"/>
      <point x="137" y="30"/>
      <point x="137" y="23" type="curve" smooth="yes"/>
      <point x="137" y="-1"/>
      <point x="155" y="-13"/>
      <point x="171" y="-13" type="curve" smooth="yes"/>
      <point x="197" y="-13"/>
      <point x="213" y="-4"/>
      <point x="224" y="20" type="curve" smooth="yes"/>
      <point x="284" y="151" type="line"/>
      <point x="379" y="150" type="line"/>
      <point x="336" y="36" type="line" smooth="yes"/>
      <point x="334" y="30"/>
      <point x="333" y="24"/>
      <point x="333" y="19" type="curve" smooth="yes"/>
      <point x="333" y="2"/>
      <point x="345" y="-12"/>
      <point x="370" y="-12" type="curve" smooth="yes"/>
      <point x="401" y="-12"/>
      <point x="410" y="2"/>
      <point x="421" y="31" type="curve" smooth="yes"/>
      <point x="464" y="150" type="line"/>
      <point x="480" y="150" type="line" smooth="yes"/>
      <point x="527" y="150"/>
      <point x="563" y="162"/>
      <point x="563" y="209" type="curve" smooth="yes"/>
      <point x="563" y="229"/>
      <point x="548" y="235"/>
      <point x="530" y="236" type="curve" smooth="yes"/>
      <point x="498" y="236" type="line"/>
      <point x="529" y="322" type="line"/>
      <point x="587" y="323"/>
      <point x="633" y="333"/>
      <point x="633" y="382" type="curve" smooth="yes"/>
      <point x="633" y="402"/>
      <point x="618" y="409"/>
      <point x="601" y="409" type="curve" smooth="yes"/>
      <point x="556" y="409" type="line"/>
      <point x="594" y="506" type="line" smooth="yes"/>
      <point x="598" y="517"/>
      <point x="600" y="526"/>
      <point x="600" y="534" type="curve" smooth="yes"/>
      <point x="600" y="553"/>
      <point x="590" y="560"/>
      <point x="570" y="560" type="curve" smooth="yes"/>
      <point x="543" y="560"/>
      <point x="525" y="546"/>
      <point x="510" y="509" type="curve" smooth="yes"/>
      <point x="470" y="409" type="line"/>
      <point x="392" y="409" type="line"/>
      <point x="435" y="511" type="line" smooth="yes"/>
      <point x="438" y="519"/>
      <point x="440" y="526"/>
    </contour>
  </outline>
</glyph>
<glyph name="dollar" format="1">
  <advance width="593"/>
  <unicode hex="0024"/>
  <outline>
    <contour>
      <point x="351" y="68" type="curve"/>
      <point x="388" y="254" type="line"/>
      <point x="417" y="237"/>
      <point x="432" y="203"/>
      <point x="432" y="168" type="curve" smooth="yes"/>
      <point x="432" y="122"/>
      <point x="405" y="75"/>
    </contour>
    <contour>
      <point x="328" y="384" type="line"/>
      <point x="303" y="397"/>
      <point x="271" y="417"/>
      <point x="271" y="449" type="curve" smooth="yes"/>
      <point x="271" y="489"/>
      <point x="299" y="513"/>
      <point x="353" y="515" type="curve"/>
    </contour>
    <contour>
      <point x="254" y="-38" type="curve" smooth="yes"/>
      <point x="254" y="-63"/>
      <point x="266" y="-79"/>
      <point x="297" y="-79" type="curve" smooth="yes"/>
      <point x="324" y="-79"/>
      <point x="334" y="-60"/>
      <point x="338" y="-39" type="curve" smooth="yes"/>
      <point x="344" y="1" type="line"/>
      <point x="444" y="8"/>
      <point x="531" y="61"/>
      <point x="531" y="177" type="curve" smooth="yes"/>
      <point x="531" y="265"/>
      <point x="460" y="306"/>
      <point x="404" y="338" type="curve"/>
      <point x="436" y="513" type="line"/>
      <point x="467" y="506"/>
      <point x="497" y="479"/>
      <point x="515" y="455" type="curve" smooth="yes"/>
      <point x="529" y="437"/>
      <point x="542" y="431"/>
      <point x="554" y="431" type="curve" smooth="yes"/>
      <point x="576" y="431"/>
      <point x="592" y="454"/>
      <point x="592" y="472" type="curve" smooth="yes"/>
      <point x="592" y="476"/>
      <point x="591" y="479"/>
      <point x="590" y="482" type="curve" smooth="yes"/>
      <point x="555" y="558"/>
      <point x="500" y="576"/>
      <point x="448" y="590" type="curve"/>
      <point x="452" y="617" type="line" smooth="yes"/>
      <point x="453" y="622"/>
      <point x="454" y="630"/>
      <point x="454" y="637" type="curve" smooth="yes"/>
      <point x="454" y="657"/>
      <point x="448" y="679"/>
      <point x="427" y="679" type="curve" smooth="yes"/>
      <point x="397" y="679"/>
      <point x="376" y="660"/>
      <point x="373" y="636" type="curve" smooth="yes"/>
      <point x="367" y="597" type="line" smooth="yes"/>
      <point x="360" y="597" type="line" smooth="yes"/>
      <point x="253" y="597"/>
      <point x="153" y="550"/>
      <point x="153" y="441" type="curve" smooth="yes"/>
      <point x="153" y="348"/>
      <point x="250" y="320"/>
      <point x="309" y="290" type="curve"/>
      <point x="268" y="70" type="line"/>
      <point x="219" y="78"/>
      <point x="185" y="111"/>
      <point x="185" y="147" type="curve" smooth="yes"/>
      <point x="185" y="182"/>
      <point x="193" y="203"/>
      <point x="225" y="203" type="curve" smooth="yes"/>
      <point x="245" y="203"/>
      <point x="258" y="216"/>
      <point x="258" y="234" type="curve" smooth="yes"/>
      <point x="258" y="260"/>
      <point x="237" y="276"/>
      <point x="213" y="276" type="curve" smooth="yes"/>
      <point x="134" y="276"/>
      <point x="84" y="224"/>
      <point x="84" y="148" type="curve" smooth="yes"/>
      <point x="84" y="47"/>
      <point x="168" y="10"/>
      <point x="258" y="1" type="curve"/>
      <point x="256" y="-13"/>
      <point x="254" y="-27"/>
    </contour>
  </outline>
</glyph>
<glyph name="comma" format="1">
  <advance width="290"/>
  <unicode hex="002C"/>
  <outline>
    <contour>
      <point x="111" y="-95" type="curve" smooth="yes"/>
      <point x="165" y="-61"/>
      <point x="217" y="-6"/>
      <point x="217" y="58" type="curve" smooth="yes"/>
      <point x="217" y="92"/>
      <point x="202" y="114"/>
      <point x="167" y="114" type="curve" smooth="yes"/>
      <point x="134" y="114"/>
      <point x="121" y="94"/>
      <point x="119" y="72" type="curve" smooth="yes"/>
      <point x="111" y="8"/>
      <point x="106" y="-12"/>
      <point x="75" y="-65" type="curve" smooth="yes"/>
      <point x="73" y="-68"/>
      <point x="72" y="-71"/>
      <point x="72" y="-74" type="curve" smooth="yes"/>
      <point x="72" y="-87"/>
      <point x="88" y="-98"/>
      <point x="101" y="-98" type="curve" smooth="yes"/>
      <point x="105" y="-98"/>
      <point x="108" y="-97"/>
    </contour>
  </outline>
</glyph>
<glyph name="hyphen" format="1">
  <advance width="387"/>
  <unicode hex="002D"/>
  <outline>
    <contour>
      <point x="232" y="307" type="move" name="_mid"/>
    </contour>
    <contour>
      <point x="88" y="268" type="curve" smooth="yes"/>
      <point x="88" y="247"/>
      <point x="103" y="225"/>
      <point x="123" y="225" type="curve" smooth="yes"/>
      <point x="128" y="225"/>
      <point x="133" y="226"/>
      <point x="138" y="229" type="curve" smooth="yes"/>
      <point x="203" y="261"/>
      <point x="246" y="280"/>
      <point x="353" y="308" type="curve" smooth="yes"/>
      <point x="376" y="314"/>
      <point x="386" y="321"/>
      <point x="386" y="339" type="curve" smooth="yes"/>
      <point x="386" y="366"/>
      <point x="365" y="373"/>
      <point x="346" y="373" type="curve" smooth="yes"/>
      <point x="262" y="362"/>
      <point x="173" y="342"/>
      <point x="123" y="316" type="curve" smooth="yes"/>
      <point x="95" y="298"/>
      <point x="88" y="281"/>
    </contour>
  </outline>
</glyph>
<glyph name="one" format="1">
  <advance width="333"/>
  <unicode hex="0031"/>
  <outline>
    <contour>
      <point x="235" y="12" type="curve" smooth="yes"/>
      <point x="271" y="170"/>
      <point x="316" y="417"/>
      <point x="322" y="448" type="curve" smooth="yes"/>
      <point x="323" y="455"/>
      <point x="324" y="461"/>
      <point x="324" y="467" type="curve" smooth="yes"/>
      <point x="324" y="482"/>
      <point x="320" y="492"/>
      <point x="308" y="492" type="curve" smooth="yes"/>
      <point x="303" y="492" type="line" smooth="yes"/>
      <point x="268" y="485"/>
      <point x="157" y="465"/>
      <point x="129" y="456" type="curve" smooth="yes"/>
      <point x="118" y="453"/>
      <point x="113" y="434"/>
      <point x="113" y="415" type="curve" smooth="yes"/>
      <point x="113" y="394"/>
      <point x="119" y="372"/>
      <point x="131" y="372" type="curve" smooth="yes"/>
      <point x="134" y="372" type="line" smooth="yes"/>
      <point x="147" y="375"/>
      <point x="202" y="391"/>
      <point x="218" y="397" type="curve"/>
      <point x="198" y="312"/>
      <point x="169" y="181"/>
      <point x="137" y="22" type="curve" smooth="yes"/>
      <point x="137" y="20"/>
      <point x="136" y="18"/>
      <point x="136" y="16" type="curve" smooth="yes"/>
      <point x="136" y="-6"/>
      <point x="160" y="-16"/>
      <point x="184" y="-16" type="curve" smooth="yes"/>
      <point x="208" y="-16"/>
      <point x="232" y="-6"/>
    </contour>
  </outline>
</glyph>
<glyph name="five" format="1">
  <advance width="430"/>
  <unicode hex="0035"/>
  <outline>
    <contour>
      <point x="72" y="104" type="curve" smooth="yes"/>
      <point x="72" y="27"/>
      <point x="138" y="-8"/>
      <point x="240" y="-8" type="curve" smooth="yes"/>
      <point x="320" y="-8"/>
      <point x="410" y="35"/>
      <point x="410" y="145" type="curve" smooth="yes"/>
      <point x="410" y="264"/>
      <point x="330" y="306"/>
      <point x="252" y="306" type="curve" smooth="yes"/>
      <point x="235" y="306"/>
      <point x="219" y="304"/>
      <point x="204" y="301" type="curve"/>
      <point x="232" y="377" type="line" smooth="yes"/>
      <point x="245" y="377" type="line" smooth="yes"/>
      <point x="294" y="377"/>
      <point x="334" y="370"/>
      <point x="365" y="370" type="curve" smooth="yes"/>
      <point x="404" y="370"/>
      <point x="427" y="381"/>
      <point x="433" y="431" type="curve" smooth="yes"/>
      <point x="434" y="438"/>
      <point x="434" y="444"/>
      <point x="434" y="450" type="curve" smooth="yes"/>
      <point x="434" y="482"/>
      <point x="423" y="491"/>
      <point x="414" y="491" type="curve" smooth="yes"/>
      <point x="410" y="491"/>
      <point x="408" y="489"/>
      <point x="406" y="487" type="curve" smooth="yes"/>
      <point x="392" y="467"/>
      <point x="376" y="460"/>
      <point x="358" y="460" type="curve" smooth="yes"/>
      <point x="324" y="460"/>
      <point x="281" y="485"/>
      <point x="224" y="485" type="curve" smooth="yes"/>
      <point x="123" y="485"/>
      <point x="179" y="414"/>
      <point x="119" y="304" type="curve" smooth="yes"/>
      <point x="112" y="289"/>
      <point x="108" y="275"/>
      <point x="108" y="264" type="curve" smooth="yes"/>
      <point x="108" y="244"/>
      <point x="119" y="231"/>
      <point x="138" y="231" type="curve" smooth="yes"/>
      <point x="141" y="231"/>
      <point x="144" y="231"/>
      <point x="147" y="232" type="curve" smooth="yes"/>
      <point x="165" y="235"/>
      <point x="182" y="237"/>
      <point x="197" y="237" type="curve" smooth="yes"/>
      <point x="268" y="237"/>
      <point x="312" y="202"/>
      <point x="312" y="146" type="curve" smooth="yes"/>
      <point x="312" y="95"/>
      <point x="267" y="73"/>
      <point x="226" y="73" type="curve" smooth="yes"/>
      <point x="178" y="74"/>
      <point x="162" y="88"/>
      <point x="149" y="110" type="curve"/>
      <point x="141" y="115"/>
      <point x="138" y="125"/>
      <point x="138" y="138" type="curve" smooth="yes"/>
      <point x="138" y="158"/>
      <point x="124" y="164"/>
      <point x="126" y="166" type="curve"/>
      <point x="105" y="166"/>
      <point x="72" y="152"/>
    </contour>
  </outline>
</glyph>
<glyph name="greater" format="1">
  <advance width="404"/>
  <unicode hex="003E"/>
  <outline>
    <contour>
      <point x="135" y="50" type="curve" smooth="yes"/>
      <point x="310" y="115" type="line" smooth="yes"/>
      <point x="375" y="139"/>
      <point x="388" y="149"/>
      <point x="388" y="198" type="curve" smooth="yes"/>
      <point x="388" y="262"/>
      <point x="343" y="272"/>
      <point x="317" y="282" type="curve" smooth="yes"/>
      <point x="114" y="362" type="line" smooth="yes"/>
      <point x="102" y="367"/>
      <point x="93" y="369"/>
      <point x="84" y="369" type="curve" smooth="yes"/>
      <point x="53" y="369"/>
      <point x="41" y="342"/>
      <point x="41" y="304" type="curve" smooth="yes"/>
      <point x="41" y="281"/>
      <point x="56" y="274"/>
      <point x="70" y="270" type="curve" smooth="yes"/>
      <point x="275" y="205" type="line"/>
      <point x="85" y="138" type="line" smooth="yes"/>
      <point x="65" y="131"/>
      <point x="43" y="120"/>
      <point x="43" y="94" type="curve" smooth="yes"/>
      <point x="43" y="85"/>
      <point x="46" y="74"/>
      <point x="52" y="61" type="curve" smooth="yes"/>
      <point x="59" y="48"/>
      <point x="70" y="40"/>
      <point x="89" y="40" type="curve" smooth="yes"/>
      <point x="101" y="40"/>
      <point x="116" y="43"/>
    </contour>
  </outline>
</glyph>
<glyph name="A" format="1">
  <advance width="706"/>
  <unicode hex="0041"/>
  <outline>
    <contour>
      <point x="587" y="708" type="move" name="top"/>
    </contour>
    <contour>
      <point x="545" y="-56" type="move" name="ogonek"/>
    </contour>
    <contour>
      <point x="606" y="19" type="curve" smooth="yes"/>
      <point x="582" y="19"/>
      <point x="572" y="37"/>
      <point x="572" y="68" type="curve" smooth="yes"/>
      <point x="572" y="89"/>
      <point x="577" y="120"/>
      <point x="587" y="164" type="curve" smooth="yes"/>
      <point x="660" y="477" type="line" smooth="yes"/>
      <point x="661" y="483"/>
      <point x="662" y="489"/>
      <point x="662" y="494" type="curve" smooth="yes"/>
      <point x="662" y="517"/>
      <point x="647" y="530"/>
      <point x="611" y="530" type="curve" smooth="yes"/>
      <point x="585" y="530"/>
      <point x="567" y="524"/>
      <point x="562" y="501" type="curve" smooth="yes"/>
      <point x="485" y="207" type="line" smooth="yes"/>
      <point x="458" y="101"/>
      <point x="402" y="25"/>
      <point x="298" y="25" type="curve" smooth="yes"/>
      <point x="203" y="25"/>
      <point x="160" y="104"/>
      <point x="160" y="204" type="curve" smooth="yes"/>
      <point x="160" y="379"/>
      <point x="295" y="620"/>
      <point x="530" y="620" type="curve" smooth="yes"/>
      <point x="532" y="620" type="line" smooth="yes"/>
      <point x="597" y="620"/>
      <point x="662" y="599"/>
      <point x="721" y="557" type="curve" smooth="yes"/>
      <point x="729" y="550"/>
      <point x="739" y="548"/>
      <point x="747" y="548" type="curve" smooth="yes"/>
      <point x="769" y="548"/>
      <point x="786" y="567"/>
      <point x="786" y="591" type="curve" smooth="yes"/>
      <point x="786" y="600"/>
      <point x="784" y="615"/>
      <point x="771" y="625" type="curve" smooth="yes"/>
      <point x="705" y="684"/>
      <point x="621" y="713"/>
      <point x="535" y="713" type="curve" smooth="yes"/>
      <point x="312" y="713"/>
      <point x="72" y="524"/>
      <point x="55" y="197" type="curve" smooth="yes"/>
      <point x="55" y="188"/>
      <point x="54" y="180"/>
      <point x="54" y="172" type="curve" smooth="yes"/>
      <point x="54" y="0"/>
      <point x="150" y="-72"/>
      <point x="271" y="-72" type="curve" smooth="yes"/>
      <point x="278" y="-72"/>
      <point x="285" y="-71"/>
      <point x="292" y="-71" type="curve" smooth="yes"/>
      <point x="388.066" y="-64.3747"/>
      <point x="463.557" y="9.46313"/>
      <point x="486.665" y="60.2039" type="curve"/>
      <point x="485.69" y="51.9561"/>
      <point x="485" y="42.6938"/>
      <point x="485" y="33" type="curve" smooth="yes"/>
      <point x="485" y="-21"/>
      <point x="515" y="-67"/>
      <point x="581" y="-67" type="curve" smooth="yes"/>
      <point x="628" y="-67"/>
      <point x="682" y="-42"/>
      <point x="710" y="-11" type="curve" smooth="yes"/>
      <point x="717" y="-3"/>
      <point x="719" y="7"/>
      <point x="719" y="14" type="curve" smooth="yes"/>
      <point x="719" y="38"/>
      <point x="701" y="55"/>
      <point x="682" y="55" type="curve" smooth="yes"/>
      <point x="673" y="55"/>
      <point x="667" y="52"/>
      <point x="660" y="46" type="curve" smooth="yes"/>
      <point x="644" y="32"/>
      <point x="624" y="19"/>
    </contour>
  </outline>
</glyph>
<glyph name="C" format="1">
  <advance width="603"/>
  <unicode hex="0043"/>
  <outline>
    <contour>
      <point x="507" y="708" type="move" name="top"/>
    </contour>
    <contour>
      <point x="305" y="-70" type="move" name="bot"/>
    </contour>
    <contour>
      <point x="55" y="190" type="curve" smooth="yes"/>
      <point x="55" y="37"/>
      <point x="136" y="-95"/>
      <point x="320" y="-95" type="curve" smooth="yes"/>
      <point x="465" y="-95"/>
      <point x="587" y="7"/>
      <point x="629" y="121" type="curve" smooth="yes"/>
      <point x="631" y="125"/>
      <point x="631" y="129"/>
      <point x="631" y="133" type="curve" smooth="yes"/>
      <point x="631" y="152"/>
      <point x="612" y="165"/>
      <point x="594" y="165" type="curve" smooth="yes"/>
      <point x="585" y="165"/>
      <point x="576" y="161"/>
      <point x="570" y="153" type="curve" smooth="yes"/>
      <point x="518" y="75"/>
      <point x="450" y="-2"/>
      <point x="340" y="-2" type="curve" smooth="yes"/>
      <point x="221" y="-2"/>
      <point x="171" y="93"/>
      <point x="171" y="207" type="curve" smooth="yes"/>
      <point x="171" y="391"/>
      <point x="289" y="580"/>
      <point x="453" y="580" type="curve" smooth="yes"/>
      <point x="510" y="580"/>
      <point x="539" y="548"/>
      <point x="539" y="503" type="curve" smooth="yes"/>
      <point x="539" y="453"/>
      <point x="498" y="397"/>
      <point x="418" y="387" type="curve" smooth="yes"/>
      <point x="380" y="383"/>
      <point x="359" y="370"/>
      <point x="359" y="341" type="curve" smooth="yes"/>
      <point x="359" y="316"/>
      <point x="377" y="304"/>
      <point x="410" y="304" type="curve" smooth="yes"/>
      <point x="416" y="304"/>
      <point x="423" y="304"/>
      <point x="430" y="305" type="curve" smooth="yes"/>
      <point x="559" y="321"/>
      <point x="632" y="425"/>
      <point x="632" y="521" type="curve" smooth="yes"/>
      <point x="632" y="604"/>
      <point x="575" y="672"/>
      <point x="459" y="672" type="curve" smooth="yes"/>
      <point x="234" y="672"/>
      <point x="55" y="434"/>
    </contour>
  </outline>
</glyph>
<glyph name="Y" format="1">
  <advance width="589"/>
  <unicode hex="0059"/>
  <outline>
    <contour>
      <point x="457" y="708" type="move" name="top"/>
    </contour>
    <contour>
      <point x="521.703" y="157.854" type="curve"/>
      <point x="620" y="537" type="line" smooth="yes"/>
      <point x="623" y="550"/>
      <point x="625" y="562"/>
      <point x="625" y="572" type="curve" smooth="yes"/>
      <point x="625" y="596"/>
      <point x="614" y="609"/>
      <point x="577" y="609" type="curve" smooth="yes"/>
      <point x="555" y="609"/>
      <point x="539" y="592"/>
      <point x="531" y="560" type="curve" smooth="yes"/>
      <point x="442" y="210" type="line"/>
      <point x="387" y="141"/>
      <point x="317" y="95"/>
      <point x="263" y="95" type="curve" smooth="yes"/>
      <point x="214" y="95"/>
      <point x="178" y="132"/>
      <point x="178" y="222" type="curve" smooth="yes"/>
      <point x="178" y="300"/>
      <point x="205" y="419"/>
      <point x="275" y="589" type="curve" smooth="yes"/>
      <point x="277" y="593"/>
      <point x="277" y="596"/>
      <point x="277" y="599" type="curve" smooth="yes"/>
      <point x="277" y="616"/>
      <point x="254" y="620"/>
      <point x="239" y="620" type="curve" smooth="yes"/>
      <point x="202" y="620"/>
      <point x="187" y="595"/>
      <point x="179" y="582" type="curve" smooth="yes"/>
      <point x="104" y="450"/>
      <point x="72" y="332"/>
      <point x="72" y="240" type="curve" smooth="yes"/>
      <point x="72" y="104"/>
      <point x="140" y="21"/>
      <point x="238" y="21" type="curve" smooth="yes"/>
      <point x="292" y="21"/>
      <point x="355" y="46"/>
      <point x="420" y="102" type="curve"/>
      <point x="416.405" y="87.6825"/>
      <point x="412.737" y="73.7473"/>
      <point x="409.011" y="60.2009" type="curve"/>
      <point x="283.198" y="-55.3844"/>
      <point x="168" y="-186.799"/>
      <point x="168" y="-274" type="curve" smooth="yes"/>
      <point x="168" y="-312"/>
      <point x="194" y="-345"/>
      <point x="240" y="-345" type="curve" smooth="yes"/>
      <point x="365.3" y="-345"/>
      <point x="422.4" y="-212.97"/>
      <point x="493.059" y="48.6372" type="curve"/>
      <point x="566.487" y="114.533"/>
      <point x="646.123" y="178.907"/>
      <point x="716" y="228" type="curve" smooth="yes"/>
      <point x="722" y="232"/>
      <point x="725" y="240"/>
      <point x="725" y="248" type="curve" smooth="yes"/>
      <point x="725" y="265"/>
      <point x="713" y="285"/>
      <point x="697" y="285" type="curve" smooth="yes"/>
      <point x="693" y="285"/>
      <point x="688" y="283"/>
      <point x="683" y="280" type="curve" smooth="yes"/>
      <point x="644.996" y="254.376"/>
      <point x="586.187" y="210.765"/>
    </contour>
    <contour>
      <point x="366.37" y="-73.5374" type="curve"/>
      <point x="320.671" y="-197.657"/>
      <point x="276.285" y="-265"/>
      <point x="262" y="-265" type="curve" smooth="yes"/>
      <point x="254" y="-265"/>
      <point x="250" y="-259"/>
      <point x="250" y="-241" type="curve" smooth="yes"/>
      <point x="250" y="-209.284"/>
      <point x="297.196" y="-146.219"/>
    </contour>
  </outline>
</glyph>
<glyph name="Z" format="1">
  <advance width="631"/>
  <unicode hex="005A"/>
  <outline>
    <contour>
      <point x="497" y="679" type="move" name="top"/>
    </contour>
    <contour>
      <point x="780" y="32" type="curve" smooth="yes"/>
      <point x="780" y="57"/>
      <point x="764" y="72"/>
      <point x="746" y="72" type="curve" smooth="yes"/>
      <point x="734" y="72"/>
      <point x="721" y="67"/>
      <point x="711" y="61" type="curve" smooth="yes"/>
      <point x="657" y="20"/>
      <point x="613" y="5"/>
      <point x="573" y="5" type="curve" smooth="yes"/>
      <point x="489" y="5"/>
      <point x="425" y="75"/>
      <point x="316" y="129" type="curve"/>
      <point x="367" y="184"/>
      <point x="555" y="418"/>
      <point x="695" y="523" type="curve"/>
      <point x="729" y="524"/>
      <point x="759" y="528"/>
      <point x="771" y="531" type="curve" smooth="yes"/>
      <point x="792" y="536"/>
      <point x="810" y="548"/>
      <point x="810" y="576" type="curve" smooth="yes"/>
      <point x="810" y="620"/>
      <point x="774" y="623"/>
      <point x="737" y="627" type="curve" smooth="yes"/>
      <point x="604" y="631"/>
      <point x="470" y="647"/>
      <point x="334" y="647" type="curve" smooth="yes"/>
      <point x="211" y="647"/>
      <point x="95" y="628"/>
      <point x="41" y="454" type="curve" smooth="yes"/>
      <point x="40" y="449"/>
      <point x="39" y="445"/>
      <point x="39" y="441" type="curve" smooth="yes"/>
      <point x="39" y="422"/>
      <point x="53" y="415"/>
      <point x="69" y="415" type="curve" smooth="yes"/>
      <point x="84" y="415"/>
      <point x="101" y="422"/>
      <point x="106" y="432" type="curve" smooth="yes"/>
      <point x="132" y="477"/>
      <point x="191" y="525"/>
      <point x="418" y="525" type="curve" smooth="yes"/>
      <point x="465" y="525"/>
      <point x="528" y="522"/>
      <point x="573" y="522" type="curve"/>
      <point x="561" y="514" type="line" smooth="yes"/>
      <point x="404" y="410"/>
      <point x="214" y="186"/>
      <point x="178" y="151" type="curve" smooth="yes"/>
      <point x="120" y="94"/>
      <point x="80" y="51"/>
      <point x="80" y="23" type="curve" smooth="yes"/>
      <point x="80" y="0"/>
      <point x="108" y="-14"/>
      <point x="128" y="-14" type="curve" smooth="yes"/>
      <point x="135" y="-14"/>
      <point x="141" y="-13"/>
      <point x="147" y="-9" type="curve" smooth="yes"/>
      <point x="166" y="4"/>
      <point x="216" y="41"/>
      <point x="249" y="63" type="curve"/>
      <point x="352" y="13"/>
      <point x="454" y="-75"/>
      <point x="578" y="-75" type="curve" smooth="yes"/>
      <point x="629" y="-75"/>
      <point x="685" y="-60"/>
      <point x="745" y="-21" type="curve" smooth="yes"/>
      <point x="749" y="-18"/>
      <point x="780" y="2"/>
    </contour>
  </outline>
</glyph>
<glyph name="bracketleft" format="1">
  <advance width="316"/>
  <unicode hex="005B"/>
  <outline>
    <contour>
      <point x="181" y="-71" type="curve" smooth="yes"/>
      <point x="282" y="-72" type="line" smooth="yes"/>
      <point x="306" y="-72"/>
      <point x="336" y="-51"/>
      <point x="336" y="-21" type="curve" smooth="yes"/>
      <point x="336" y="2"/>
      <point x="312" y="13"/>
      <point x="287" y="13" type="curve" smooth="yes"/>
      <point x="222" y="13" type="line"/>
      <point x="241" y="137"/>
      <point x="240" y="158"/>
      <point x="251" y="238" type="curve" smooth="yes"/>
      <point x="260" y="294"/>
      <point x="269" y="386"/>
      <point x="285" y="489" type="curve"/>
      <point x="372" y="489" type="line" smooth="yes"/>
      <point x="395" y="489"/>
      <point x="419" y="506"/>
      <point x="419" y="532" type="curve" smooth="yes"/>
      <point x="419" y="559"/>
      <point x="401" y="576"/>
      <point x="375" y="576" type="curve" smooth="yes"/>
      <point x="264" y="576" type="line" smooth="yes"/>
      <point x="229" y="576"/>
      <point x="208" y="567"/>
      <point x="199" y="514" type="curve" smooth="yes"/>
      <point x="177" y="379"/>
      <point x="169" y="304"/>
      <point x="146" y="133" type="curve" smooth="yes"/>
      <point x="126" y="-18" type="line" smooth="yes"/>
      <point x="125" y="-25"/>
      <point x="124" y="-31"/>
      <point x="124" y="-37" type="curve" smooth="yes"/>
      <point x="124" y="-62"/>
      <point x="140" y="-70"/>
    </contour>
  </outline>
</glyph>
<glyph name="bracketright" format="1">
  <advance width="316"/>
  <unicode hex="005D"/>
  <outline>
    <contour>
      <point x="45" y="-71" type="curve" smooth="yes"/>
      <point x="154" y="-71" type="line" smooth="yes"/>
      <point x="193" y="-71"/>
      <point x="217" y="-65"/>
      <point x="228" y="-4" type="curve" smooth="yes"/>
      <point x="251" y="133"/>
      <point x="255" y="231"/>
      <point x="282" y="416" type="curve"/>
      <point x="280" y="405"/>
      <point x="279" y="400"/>
      <point x="279" y="400" type="curve" smooth="yes"/>
      <point x="278" y="400"/>
      <point x="294" y="513"/>
      <point x="294" y="513" type="curve" smooth="yes"/>
      <point x="295" y="522"/>
      <point x="296" y="529"/>
      <point x="296" y="536" type="curve" smooth="yes"/>
      <point x="296" y="566"/>
      <point x="281" y="576"/>
      <point x="241" y="576" type="curve" smooth="yes"/>
      <point x="141" y="576" type="line" smooth="yes"/>
      <point x="118" y="576"/>
      <point x="90" y="556"/>
      <point x="90" y="526" type="curve" smooth="yes"/>
      <point x="90" y="503"/>
      <point x="114" y="491"/>
      <point x="132" y="491" type="curve" smooth="yes"/>
      <point x="200" y="491" type="line"/>
      <point x="180" y="367"/>
      <point x="185" y="384"/>
      <point x="168" y="256" type="curve" smooth="yes"/>
      <point x="149" y="131"/>
      <point x="153" y="116"/>
      <point x="136" y="13" type="curve"/>
      <point x="49" y="13" type="line" smooth="yes"/>
      <point x="26" y="13"/>
      <point x="3" y="-3"/>
      <point x="3" y="-28" type="curve" smooth="yes"/>
      <point x="3" y="-55"/>
      <point x="19" y="-71"/>
    </contour>
  </outline>
</glyph>
<glyph name="underscore" format="1">
  <advance width="456"/>
  <unicode hex="005F"/>
  <outline>
    <contour>
      <point x="148" y="-26" type="line" smooth="yes"/>
      <point x="103" y="-26"/>
      <point x="77" y="-29"/>
      <point x="77" y="-62" type="curve" smooth="yes"/>
      <point x="77" y="-86"/>
      <point x="95" y="-97"/>
      <point x="130" y="-97" type="curve" smooth="yes"/>
      <point x="374" y="-97" type="line" smooth="yes"/>
      <point x="422" y="-97"/>
      <point x="435" y="-86"/>
      <point x="435" y="-55" type="curve" smooth="yes"/>
      <point x="435" y="-37"/>
      <point x="425" y="-26"/>
      <point x="390" y="-26" type="curve" smooth="yes"/>
    </contour>
  </outline>
</glyph>
<glyph name="d" format="1">
  <advance width="368"/>
  <unicode hex="0064"/>
  <outline>
    <contour>
      <point x="283" y="474" type="move" name="mid"/>
    </contour>
    <contour>
      <point x="521" y="555" type="move" name="caron.alt"/>
    </contour>
    <contour>
      <point x="103" y="343" type="move" name="top"/>
    </contour>
    <contour>
      <point x="298" y="263" type="curve"/>
      <point x="315" y="399"/>
      <point x="341" y="561"/>
      <point x="401" y="561" type="curve" smooth="yes"/>
      <point x="412" y="561"/>
      <point x="418" y="553"/>
      <point x="418" y="540" type="curve" smooth="yes"/>
      <point x="418" y="484"/>
      <point x="350" y="354"/>
    </contour>
    <contour>
      <point x="157" y="77" type="curve" smooth="yes"/>
      <point x="125" y="77"/>
      <point x="111" y="104"/>
      <point x="111" y="142" type="curve" smooth="yes"/>
      <point x="111" y="197"/>
      <point x="145" y="263"/>
      <point x="222" y="270" type="curve"/>
      <point x="214" y="194" type="line" smooth="yes"/>
      <point x="204" y="99"/>
      <point x="183" y="77"/>
    </contour>
    <contour>
      <point x="20" y="121" type="curve" smooth="yes"/>
      <point x="20" y="42"/>
      <point x="77" y="-5"/>
      <point x="141" y="-5" type="curve" smooth="yes"/>
      <point x="180" y="-5"/>
      <point x="212" y="15"/>
      <point x="230" y="62" type="curve"/>
      <point x="248" y="20"/>
      <point x="298" y="-3"/>
      <point x="337" y="-3" type="curve" smooth="yes"/>
      <point x="413" y="-3"/>
      <point x="463" y="45"/>
      <point x="495" y="87" type="curve" smooth="yes"/>
      <point x="498" y="91"/>
      <point x="504" y="102"/>
      <point x="504" y="113" type="curve" smooth="yes"/>
      <point x="504" y="137"/>
      <point x="482" y="149"/>
      <point x="467" y="150" type="curve" smooth="yes"/>
      <point x="459" y="150"/>
      <point x="452" y="150"/>
      <point x="449" y="147" type="curve" smooth="yes"/>
      <point x="437" y="133"/>
      <point x="388" y="71"/>
      <point x="345" y="71" type="curve" smooth="yes"/>
      <point x="323" y="71"/>
      <point x="296" y="87"/>
      <point x="296" y="147" type="curve" smooth="yes"/>
      <point x="296" y="160" type="line" smooth="yes"/>
      <point x="365" y="265"/>
      <point x="502" y="424"/>
      <point x="502" y="551" type="curve" smooth="yes"/>
      <point x="502" y="609"/>
      <point x="473" y="657"/>
      <point x="414" y="657" type="curve" smooth="yes"/>
      <point x="308" y="657"/>
      <point x="257" y="547"/>
      <point x="229" y="329" type="curve"/>
      <point x="218" y="332"/>
      <point x="208" y="333"/>
      <point x="197" y="333" type="curve" smooth="yes"/>
      <point x="102" y="333"/>
      <point x="20" y="228"/>
    </contour>
  </outline>
</glyph>
<glyph name="e" format="1">
  <advance width="293"/>
  <unicode hex="0065"/>
  <outline>
    <contour>
      <point x="163" y="0" type="move" name="bot"/>
    </contour>
    <contour>
      <point x="217" y="343" type="move" name="top"/>
    </contour>
    <contour>
      <point x="241" y="20" type="move" name="ogonek"/>
    </contour>
    <contour>
      <point x="109" y="146" type="curve"/>
      <point x="109" y="202"/>
      <point x="155" y="251"/>
      <point x="197" y="251" type="curve" smooth="yes"/>
      <point x="210" y="251"/>
      <point x="220" y="247"/>
      <point x="220" y="232" type="curve" smooth="yes"/>
      <point x="220" y="197"/>
      <point x="150" y="156"/>
    </contour>
    <contour>
      <point x="20" y="127" type="curve" smooth="yes"/>
      <point x="20" y="26"/>
      <point x="95" y="-6"/>
      <point x="165" y="-6" type="curve" smooth="yes"/>
      <point x="247" y="-6"/>
      <point x="323" y="42"/>
      <point x="354" y="86" type="curve" smooth="yes"/>
      <point x="360" y="94"/>
      <point x="363" y="102"/>
      <point x="363" y="109" type="curve" smooth="yes"/>
      <point x="363" y="126"/>
      <point x="347" y="139"/>
      <point x="333" y="139" type="curve" smooth="yes"/>
      <point x="327" y="139"/>
      <point x="322" y="137"/>
      <point x="317" y="132" type="curve" smooth="yes"/>
      <point x="277" y="95"/>
      <point x="219" y="73"/>
      <point x="175" y="73" type="curve" smooth="yes"/>
      <point x="148" y="73"/>
      <point x="126" y="81"/>
      <point x="116" y="99" type="curve"/>
      <point x="236" y="119"/>
      <point x="295" y="169"/>
      <point x="295" y="236" type="curve" smooth="yes"/>
      <point x="295" y="294"/>
      <point x="259" y="329"/>
      <point x="202" y="329" type="curve" smooth="yes"/>
      <point x="97" y="329"/>
      <point x="20" y="213"/>
    </contour>
  </outline>
</glyph>
<glyph name="m" format="1">
  <advance width="489"/>
  <unicode hex="006D"/>
  <outline>
    <contour>
      <point x="336" y="343" type="move" name="top"/>
    </contour>
    <contour>
      <point x="400" y="239" type="curve"/>
      <point x="361" y="153"/>
      <point x="357" y="109"/>
      <point x="357" y="72" type="curve" smooth="yes"/>
      <point x="357" y="34"/>
      <point x="376" y="-2"/>
      <point x="432" y="-2" type="curve" smooth="yes"/>
      <point x="491" y="-2"/>
      <point x="561" y="41"/>
      <point x="604" y="100" type="curve" smooth="yes"/>
      <point x="605" y="101"/>
      <point x="605" y="103"/>
      <point x="605" y="104" type="curve" smooth="yes"/>
      <point x="605" y="116"/>
      <point x="584" y="137"/>
      <point x="568" y="137" type="curve" smooth="yes"/>
      <point x="563" y="137"/>
      <point x="559" y="135"/>
      <point x="556" y="131" type="curve" smooth="yes"/>
      <point x="523" y="91"/>
      <point x="497" y="69"/>
      <point x="474" y="62" type="curve" smooth="yes"/>
      <point x="469" y="60"/>
      <point x="464" y="60"/>
      <point x="460" y="60" type="curve" smooth="yes"/>
      <point x="440" y="60"/>
      <point x="434" y="77"/>
      <point x="434" y="100" type="curve" smooth="yes"/>
      <point x="434" y="155"/>
      <point x="462" y="227"/>
      <point x="482" y="298" type="curve" smooth="yes"/>
      <point x="483" y="300"/>
      <point x="483" y="302"/>
      <point x="483" y="304" type="curve" smooth="yes"/>
      <point x="483" y="319"/>
      <point x="467" y="333"/>
      <point x="441" y="333" type="curve" smooth="yes"/>
      <point x="406" y="333"/>
      <point x="347" y="304"/>
      <point x="279" y="152" type="curve"/>
      <point x="290" y="208"/>
      <point x="308" y="271"/>
      <point x="308" y="300" type="curve" smooth="yes"/>
      <point x="308" y="323"/>
      <point x="282" y="335"/>
      <point x="265" y="335" type="curve" smooth="yes"/>
      <point x="230" y="335"/>
      <point x="172" y="287"/>
      <point x="114" y="143" type="curve"/>
      <point x="114" y="186"/>
      <point x="136" y="274"/>
      <point x="143" y="297" type="curve" smooth="yes"/>
      <point x="144" y="299"/>
      <point x="144" y="302"/>
      <point x="144" y="304" type="curve" smooth="yes"/>
      <point x="144" y="320"/>
      <point x="129" y="330"/>
      <point x="113" y="330" type="curve" smooth="yes"/>
      <point x="111" y="330" type="line" smooth="yes"/>
      <point x="88" y="330"/>
      <point x="76" y="310"/>
      <point x="73" y="303" type="curve" smooth="yes"/>
      <point x="50" y="237"/>
      <point x="35" y="156"/>
      <point x="35" y="103" type="curve" smooth="yes"/>
      <point x="35" y="93"/>
      <point x="36" y="85"/>
      <point x="37" y="77" type="curve" smooth="yes"/>
      <point x="38" y="34"/>
      <point x="47" y="0"/>
      <point x="87" y="-0" type="curve" smooth="yes"/>
      <point x="106" y="0"/>
      <point x="122" y="8"/>
      <point x="145" y="55" type="curve" smooth="yes"/>
      <point x="182" y="132"/>
      <point x="193" y="165"/>
      <point x="243" y="233" type="curve"/>
      <point x="212" y="136"/>
      <point x="207" y="88"/>
      <point x="206" y="71" type="curve" smooth="yes"/>
      <point x="206" y="65"/>
      <point x="205" y="59"/>
      <point x="205" y="53" type="curve" smooth="yes"/>
      <point x="205" y="24"/>
      <point x="216" y="2"/>
      <point x="253" y="2" type="curve" smooth="yes"/>
      <point x="268" y="2"/>
      <point x="280" y="11"/>
      <point x="290" y="29" type="curve" smooth="yes"/>
      <point x="325" y="102"/>
      <point x="353" y="177"/>
    </contour>
  </outline>
</glyph>
<glyph name="n" format="1">
  <advance width="338"/>
  <unicode hex="006E"/>
  <outline>
    <contour>
      <point x="257" y="343" type="move" name="top"/>
    </contour>
    <contour>
      <point x="204" y="57" type="curve" smooth="yes"/>
      <point x="204" y="15"/>
      <point x="229" y="-2"/>
      <point x="268" y="-2" type="curve" smooth="yes"/>
      <point x="321" y="-2"/>
      <point x="384" y="35"/>
      <point x="426" y="70" type="curve" smooth="yes"/>
      <point x="433" y="76"/>
      <point x="436" y="86"/>
      <point x="436" y="96" type="curve" smooth="yes"/>
      <point x="436" y="115"/>
      <point x="425" y="136"/>
      <point x="409" y="136" type="curve" smooth="yes"/>
      <point x="404" y="136"/>
      <point x="399" y="134"/>
      <point x="393" y="129" type="curve" smooth="yes"/>
      <point x="358" y="99"/>
      <point x="329" y="82"/>
      <point x="314" y="82" type="curve" smooth="yes"/>
      <point x="305" y="82"/>
      <point x="300" y="88"/>
      <point x="301" y="103" type="curve" smooth="yes"/>
      <point x="308" y="169"/>
      <point x="355" y="237"/>
      <point x="355" y="290" type="curve" smooth="yes"/>
      <point x="355" y="322"/>
      <point x="334" y="334"/>
      <point x="309" y="334" type="curve" smooth="yes"/>
      <point x="306" y="334"/>
      <point x="302" y="333"/>
      <point x="299" y="333" type="curve" smooth="yes"/>
      <point x="245" y="328"/>
      <point x="175" y="274"/>
      <point x="113" y="166" type="curve"/>
      <point x="124" y="216"/>
      <point x="141" y="266"/>
      <point x="150" y="289" type="curve" smooth="yes"/>
      <point x="152" y="294"/>
      <point x="153" y="298"/>
      <point x="153" y="302" type="curve" smooth="yes"/>
      <point x="153" y="321"/>
      <point x="137" y="332"/>
      <point x="115" y="332" type="curve" smooth="yes"/>
      <point x="89" y="332"/>
      <point x="77" y="315"/>
      <point x="68" y="292" type="curve" smooth="yes"/>
      <point x="43" y="230"/>
      <point x="25" y="152"/>
      <point x="24" y="82" type="curve" smooth="yes"/>
      <point x="24" y="46"/>
      <point x="29" y="-2"/>
      <point x="68" y="-2" type="curve" smooth="yes"/>
      <point x="93" y="-2"/>
      <point x="103" y="8"/>
      <point x="115" y="41" type="curve" smooth="yes"/>
      <point x="153" y="148"/>
      <point x="206" y="206"/>
      <point x="235" y="216" type="curve" smooth="yes"/>
      <point x="237" y="216" type="line" smooth="yes"/>
      <point x="239" y="216"/>
      <point x="241" y="215"/>
      <point x="241" y="211" type="curve" smooth="yes"/>
      <point x="241" y="190"/>
      <point x="204" y="114"/>
    </contour>
  </outline>
</glyph>
<glyph name="q" format="1">
  <advance width="395"/>
  <unicode hex="0071"/>
  <outline>
    <contour>
      <point x="217" y="55" type="curve" smooth="yes"/>
      <point x="212" y="54"/>
      <point x="208" y="54"/>
      <point x="204" y="54" type="curve" smooth="yes"/>
      <point x="156" y="54"/>
      <point x="135" y="94"/>
      <point x="135" y="140" type="curve" smooth="yes"/>
      <point x="135" y="201"/>
      <point x="173" y="273"/>
      <point x="234" y="273" type="curve" smooth="yes"/>
      <point x="251" y="273"/>
      <point x="277" y="268"/>
      <point x="277" y="267" type="curve" smooth="yes"/>
      <point x="277" y="249.918"/>
      <point x="262.189" y="195.208"/>
      <point x="245.484" y="141.113" type="curve"/>
      <point x="221.161" y="134.412"/>
      <point x="209" y="110.991"/>
      <point x="209" y="89" type="curve" smooth="yes"/>
      <point x="209" y="78.0067"/>
      <point x="212.147" y="67.2233"/>
      <point x="218.345" y="58.7639" type="curve" smooth="yes"/>
      <point x="217.892" y="57.4888"/>
      <point x="217.443" y="56.2338"/>
    </contour>
    <contour>
      <point x="312.801" y="62.1842" type="line"/>
      <point x="371.027" y="80.4829"/>
      <point x="465.388" y="179.776"/>
      <point x="492" y="233" type="curve" smooth="yes"/>
      <point x="494" y="238"/>
      <point x="495" y="242"/>
      <point x="495" y="247" type="curve" smooth="yes"/>
      <point x="495" y="265"/>
      <point x="481" y="280"/>
      <point x="465" y="280" type="curve" smooth="yes"/>
      <point x="457" y="280"/>
      <point x="449" y="276"/>
      <point x="442" y="266" type="curve" smooth="yes"/>
      <point x="418.851" y="232.562"/>
      <point x="378.334" y="192.921"/>
      <point x="344.647" y="165.159" type="curve"/>
      <point x="356.583" y="204.66"/>
      <point x="367" y="244.821"/>
      <point x="367" y="271" type="curve" smooth="yes"/>
      <point x="367" y="300"/>
      <point x="298" y="336"/>
      <point x="227" y="336" type="curve" smooth="yes"/>
      <point x="104" y="332"/>
      <point x="44" y="233"/>
      <point x="44" y="141" type="curve" smooth="yes"/>
      <point x="44" y="59"/>
      <point x="91" y="-17"/>
      <point x="183" y="-17" type="curve" smooth="yes"/>
      <point x="189" y="-17"/>
      <point x="195" y="-17"/>
      <point x="202" y="-16" type="curve"/>
      <point x="184" y="-85"/>
      <point x="154" y="-172"/>
      <point x="131" y="-240" type="curve" smooth="yes"/>
      <point x="130" y="-242"/>
      <point x="130" y="-243"/>
      <point x="130" y="-245" type="curve" smooth="yes"/>
      <point x="130" y="-264"/>
      <point x="161" y="-284"/>
      <point x="187" y="-284" type="curve" smooth="yes"/>
      <point x="203" y="-284"/>
      <point x="218" y="-277"/>
      <point x="223" y="-257" type="curve" smooth="yes"/>
    </contour>
  </outline>
</glyph>
<glyph name="s" format="1">
  <advance width="291"/>
  <unicode hex="0073"/>
  <outline>
    <contour>
      <point x="237" y="343" type="move" name="top"/>
    </contour>
    <contour>
      <point x="146" y="20" type="move" name="bot"/>
    </contour>
    <contour>
      <point x="152" y="61" type="line" smooth="yes"/>
      <point x="150" y="61" type="line" smooth="yes"/>
      <point x="139" y="61"/>
      <point x="123" y="70"/>
      <point x="105" y="80" type="curve"/>
      <point x="111" y="92"/>
      <point x="104" y="82"/>
      <point x="127" y="129" type="curve" smooth="yes"/>
      <point x="161" y="199" type="line"/>
      <point x="187" y="161"/>
      <point x="202" y="125"/>
      <point x="202" y="100" type="curve" smooth="yes"/>
      <point x="202" y="76"/>
      <point x="188" y="61"/>
      <point x="157" y="61" type="curve" smooth="yes"/>
    </contour>
    <contour>
      <point x="179" y="-6" type="line" smooth="yes"/>
      <point x="299" y="-6"/>
      <point x="386" y="34"/>
      <point x="418" y="95" type="curve" smooth="yes"/>
      <point x="421" y="101"/>
      <point x="423" y="108"/>
      <point x="423" y="114" type="curve" smooth="yes"/>
      <point x="423" y="137"/>
      <point x="404" y="161"/>
      <point x="385" y="161" type="curve" smooth="yes"/>
      <point x="379" y="161"/>
      <point x="372" y="158"/>
      <point x="367" y="152" type="curve" smooth="yes"/>
      <point x="356" y="138"/>
      <point x="317" y="91"/>
      <point x="279" y="75" type="curve"/>
      <point x="285" y="85"/>
      <point x="288" y="95"/>
      <point x="288" y="105" type="curve" smooth="yes"/>
      <point x="288" y="166"/>
      <point x="192" y="225"/>
      <point x="192" y="258" type="curve" smooth="yes"/>
      <point x="192" y="261"/>
      <point x="193" y="264"/>
      <point x="194" y="266" type="curve" smooth="yes"/>
      <point x="202" y="280"/>
      <point x="206" y="293"/>
      <point x="206" y="303" type="curve" smooth="yes"/>
      <point x="206" y="327"/>
      <point x="186" y="341"/>
      <point x="164" y="341" type="curve" smooth="yes"/>
      <point x="146" y="341"/>
      <point x="125" y="332"/>
      <point x="112" y="312" type="curve"/>
      <point x="113" y="312"/>
      <point x="20" y="128"/>
      <point x="-6" y="88" type="curve"/>
      <point x="26" y="32"/>
      <point x="95" y="-6"/>
      <point x="176" y="-6" type="curve" smooth="yes"/>
    </contour>
  </outline>
</glyph>
<glyph name="u" format="1">
  <advance width="394"/>
  <unicode hex="0075"/>
  <outline>
    <contour>
      <point x="277" y="343" type="move" name="top"/>
    </contour>
    <contour>
      <point x="334" y="0" type="move" name="ogonek"/>
    </contour>
    <contour>
      <point x="50" y="106" type="curve" smooth="yes"/>
      <point x="50" y="49"/>
      <point x="76" y="-4"/>
      <point x="145" y="-4" type="curve" smooth="yes"/>
      <point x="205" y="-4"/>
      <point x="247" y="41"/>
      <point x="269" y="89" type="curve"/>
      <point x="268" y="85"/>
      <point x="267" y="78"/>
      <point x="267" y="69" type="curve" smooth="yes"/>
      <point x="267" y="40"/>
      <point x="278" y="-4"/>
      <point x="330" y="-4" type="curve" smooth="yes"/>
      <point x="417" y="-4"/>
      <point x="470" y="66"/>
      <point x="487" y="103" type="curve"/>
      <point x="485" y="117"/>
      <point x="461" y="139"/>
      <point x="444" y="139" type="curve" smooth="yes"/>
      <point x="439" y="139"/>
      <point x="434" y="135"/>
      <point x="428" y="128" type="curve" smooth="yes"/>
      <point x="421" y="120"/>
      <point x="386" y="80"/>
      <point x="358" y="80" type="curve" smooth="yes"/>
      <point x="349" y="80"/>
      <point x="341" y="84"/>
      <point x="341" y="99" type="curve" smooth="yes"/>
      <point x="341" y="103"/>
      <point x="342" y="108"/>
      <point x="343" y="114" type="curve" smooth="yes"/>
      <point x="354" y="166"/>
      <point x="379" y="255"/>
      <point x="392" y="292" type="curve" smooth="yes"/>
      <point x="394" y="297"/>
      <point x="394" y="302"/>
      <point x="394" y="306" type="curve" smooth="yes"/>
      <point x="394" y="323"/>
      <point x="379" y="332"/>
      <point x="350" y="332" type="curve" smooth="yes"/>
      <point x="327" y="332"/>
      <point x="312" y="324"/>
      <point x="299" y="283" type="curve" smooth="yes"/>
      <point x="264" y="172" type="line" smooth="yes"/>
      <point x="245" y="112"/>
      <point x="199" y="74"/>
      <point x="169" y="74" type="curve" smooth="yes"/>
      <point x="145" y="74"/>
      <point x="143" y="96"/>
      <point x="143" y="119" type="curve" smooth="yes"/>
      <point x="144" y="177"/>
      <point x="180" y="266"/>
      <point x="196" y="299" type="curve" smooth="yes"/>
      <point x="197" y="301"/>
      <point x="198" y="304"/>
      <point x="198" y="306" type="curve" smooth="yes"/>
      <point x="198" y="321"/>
      <point x="174" y="331"/>
      <point x="154" y="331" type="curve" smooth="yes"/>
      <point x="137" y="331"/>
      <point x="122" y="325"/>
      <point x="112" y="311" type="curve" smooth="yes"/>
      <point x="103" y="299"/>
      <point x="50" y="214"/>
    </contour>
  </outline>
</glyph>
<glyph name="x" format="1">
  <advance width="326"/>
  <unicode hex="0078"/>
  <outline>
    <contour>
      <point x="243" y="-6" type="curve" smooth="yes"/>
      <point x="255" y="-9"/>
      <point x="267" y="-11"/>
      <point x="277" y="-11" type="curve" smooth="yes"/>
      <point x="354" y="-11"/>
      <point x="387" y="74"/>
      <point x="406" y="106" type="curve" smooth="yes"/>
      <point x="411" y="114"/>
      <point x="413" y="123"/>
      <point x="413" y="131" type="curve" smooth="yes"/>
      <point x="413" y="149"/>
      <point x="402" y="164"/>
      <point x="387" y="164" type="curve" smooth="yes"/>
      <point x="378" y="164"/>
      <point x="368" y="159"/>
      <point x="359" y="147" type="curve" smooth="yes"/>
      <point x="341" y="123"/>
      <point x="312" y="66"/>
      <point x="274" y="66" type="curve" smooth="yes"/>
      <point x="249.251" y="66"/>
      <point x="232.411" y="83.7176"/>
      <point x="201.948" y="134.102" type="curve"/>
      <point x="281" y="243" type="line" smooth="yes"/>
      <point x="288" y="252"/>
      <point x="297" y="255"/>
      <point x="306" y="255" type="curve" smooth="yes"/>
      <point x="324" y="255"/>
      <point x="343" y="245"/>
      <point x="358" y="245" type="curve" smooth="yes"/>
      <point x="373" y="245"/>
      <point x="381" y="261"/>
      <point x="381" y="281" type="curve" smooth="yes"/>
      <point x="381" y="315"/>
      <point x="353" y="334"/>
      <point x="321" y="334" type="curve" smooth="yes"/>
      <point x="297" y="334"/>
      <point x="271" y="323"/>
      <point x="252" y="300" type="curve" smooth="yes"/>
      <point x="169.025" y="190.862" type="line"/>
      <point x="149.858" y="224.574"/>
      <point x="126.25" y="266.443"/>
      <point x="96" y="318" type="curve" smooth="yes"/>
      <point x="93" y="324"/>
      <point x="86" y="327"/>
      <point x="78" y="327" type="curve" smooth="yes"/>
      <point x="59" y="327"/>
      <point x="35" y="312"/>
      <point x="35" y="289" type="curve" smooth="yes"/>
      <point x="35" y="284"/>
      <point x="36" y="278"/>
      <point x="39" y="272" type="curve" smooth="yes"/>
      <point x="73.0535" y="213.481"/>
      <point x="98.1438" y="166.002"/>
      <point x="119.366" y="127.756" type="curve"/>
      <point x="93.052" y="97.4144"/>
      <point x="72.2647" y="79.5"/>
      <point x="54" y="66" type="curve" smooth="yes"/>
      <point x="41" y="58"/>
      <point x="36" y="46"/>
      <point x="36" y="34" type="curve" smooth="yes"/>
      <point x="36" y="10"/>
      <point x="58" y="-15"/>
      <point x="81" y="-15" type="curve" smooth="yes"/>
      <point x="92" y="-15"/>
      <point x="104" y="-9"/>
      <point x="114" y="5" type="curve" smooth="yes"/>
      <point x="128.409" y="27.5525"/>
      <point x="140.462" y="47.3578"/>
      <point x="154.587" y="68.3496" type="curve"/>
      <point x="180.787" y="28.809"/>
      <point x="205.365" y="5.76099"/>
    </contour>
  </outline>
</glyph>
<glyph name="cent" format="1">
  <advance width="306"/>
  <unicode hex="00A2"/>
  <outline>
    <contour>
      <point x="147" y="73" type="curve"/>
      <point x="125" y="82"/>
      <point x="124" y="108"/>
      <point x="124" y="142" type="curve" smooth="yes"/>
      <point x="124" y="190"/>
      <point x="130" y="229"/>
      <point x="161" y="247" type="curve"/>
      <point x="157" y="190"/>
      <point x="151" y="130"/>
    </contour>
    <contour>
      <point x="158" y="-74" type="curve" smooth="yes"/>
      <point x="169" y="-74"/>
      <point x="186" y="-62"/>
      <point x="189" y="-45" type="curve" smooth="yes"/>
      <point x="194" y="-5" type="line"/>
      <point x="241" y="9"/>
      <point x="267" y="30"/>
      <point x="291" y="50" type="curve" smooth="yes"/>
      <point x="298" y="56"/>
      <point x="303" y="62"/>
      <point x="303" y="75" type="curve" smooth="yes"/>
      <point x="303" y="90"/>
      <point x="292" y="115"/>
      <point x="275" y="115" type="curve" smooth="yes"/>
      <point x="271" y="115"/>
      <point x="266" y="114"/>
      <point x="261" y="110" type="curve" smooth="yes"/>
      <point x="244" y="100"/>
      <point x="225" y="86"/>
      <point x="202" y="77" type="curve"/>
      <point x="207" y="136"/>
      <point x="210" y="198"/>
      <point x="214" y="255" type="curve"/>
      <point x="232" y="244"/>
      <point x="210" y="180"/>
      <point x="259" y="180" type="curve" smooth="yes"/>
      <point x="293" y="180"/>
      <point x="304" y="219"/>
      <point x="304" y="249" type="curve" smooth="yes"/>
      <point x="304" y="298"/>
      <point x="263" y="324"/>
      <point x="220" y="331" type="curve"/>
      <point x="221" y="338"/>
      <point x="223" y="355"/>
      <point x="223" y="364" type="curve" smooth="yes"/>
      <point x="223" y="372"/>
      <point x="217" y="394"/>
      <point x="206" y="394" type="curve" smooth="yes"/>
      <point x="179" y="394"/>
      <point x="170" y="363"/>
      <point x="169" y="348" type="curve" smooth="yes"/>
      <point x="168" y="333" type="line"/>
      <point x="80" y="319"/>
      <point x="16" y="239"/>
      <point x="16" y="141" type="curve" smooth="yes"/>
      <point x="16" y="60"/>
      <point x="60" y="-2"/>
      <point x="139" y="-6" type="curve"/>
      <point x="139" y="-16"/>
      <point x="137" y="-40"/>
      <point x="137" y="-54" type="curve" smooth="yes"/>
      <point x="139" y="-66"/>
      <point x="143" y="-74"/>
    </contour>
  </outline>
</glyph>
<glyph name="logicalnot" format="1">
  <advance width="416"/>
  <unicode hex="00AC"/>
  <outline>
    <contour>
      <point x="312" y="70" type="curve" smooth="yes"/>
      <point x="339" y="70"/>
      <point x="350" y="96"/>
      <point x="352" y="121" type="curve" smooth="yes"/>
      <point x="359" y="236" type="line" smooth="yes"/>
      <point x="359" y="256"/>
      <point x="342" y="268"/>
      <point x="321" y="268" type="curve" smooth="yes"/>
      <point x="105" y="268" type="line" smooth="yes"/>
      <point x="79" y="268"/>
      <point x="53" y="255"/>
      <point x="53" y="228" type="curve" smooth="yes"/>
      <point x="53" y="204"/>
      <point x="76" y="192"/>
      <point x="100" y="192" type="curve" smooth="yes"/>
      <point x="281" y="192" type="line"/>
      <point x="278" y="148"/>
      <point x="277" y="126"/>
      <point x="276" y="115" type="curve" smooth="yes"/>
      <point x="276" y="91"/>
      <point x="287" y="70"/>
    </contour>
  </outline>
</glyph>
<glyph name="plusminus" format="1">
  <advance width="514"/>
  <unicode hex="00B1"/>
  <outline>
    <contour>
      <point x="184" y="-18" type="curve" smooth="yes"/>
      <point x="324" y="-18" type="line" smooth="yes"/>
      <point x="349" y="-17"/>
      <point x="357" y="2"/>
      <point x="357" y="24" type="curve" smooth="yes"/>
      <point x="357" y="41"/>
      <point x="344" y="54"/>
      <point x="318" y="54" type="curve" smooth="yes"/>
      <point x="184" y="54" type="line" smooth="yes"/>
      <point x="164" y="54"/>
      <point x="155" y="37"/>
      <point x="155" y="19" type="curve" smooth="yes"/>
      <point x="155" y="1"/>
      <point x="165" y="-18"/>
    </contour>
    <contour>
      <point x="263" y="125" type="curve" smooth="yes"/>
      <point x="288" y="125"/>
      <point x="300" y="150"/>
      <point x="300" y="175" type="curve" smooth="yes"/>
      <point x="300" y="225" type="line"/>
      <point x="357" y="225" type="line" smooth="yes"/>
      <point x="381" y="225"/>
      <point x="401" y="241"/>
      <point x="401" y="267" type="curve" smooth="yes"/>
      <point x="401" y="286"/>
      <point x="385" y="299"/>
      <point x="363" y="299" type="curve" smooth="yes"/>
      <point x="300" y="299" type="line"/>
      <point x="300" y="359" type="line" smooth="yes"/>
      <point x="300" y="381"/>
      <point x="287" y="398"/>
      <point x="267" y="398" type="curve" smooth="yes"/>
      <point x="243" y="398"/>
      <point x="226" y="377"/>
      <point x="226" y="353" type="curve" smooth="yes"/>
      <point x="226" y="299" type="line"/>
      <point x="166" y="299" type="line" smooth="yes"/>
      <point x="141" y="299"/>
      <point x="125" y="287"/>
      <point x="125" y="262" type="curve" smooth="yes"/>
      <point x="125" y="235"/>
      <point x="140" y="225"/>
      <point x="164" y="225" type="curve" smooth="yes"/>
      <point x="226" y="225" type="line"/>
      <point x="226" y="174" type="line" smooth="yes"/>
      <point x="226" y="148"/>
      <point x="236" y="125"/>
    </contour>
  </outline>
</glyph>
<glyph name="acute" format="1">
  <advance width="208"/>
  <unicode hex="00B4"/>
  <outline>
    <contour>
      <point x="111" y="343" type="move" name="_top"/>
    </contour>
    <contour>
      <point x="163" y="472" type="curve" smooth="yes"/>
      <point x="273" y="598" type="line" smooth="yes"/>
      <point x="282" y="608"/>
      <point x="286" y="618"/>
      <point x="286" y="628" type="curve" smooth="yes"/>
      <point x="286" y="655"/>
      <point x="257" y="677"/>
      <point x="231" y="677" type="curve" smooth="yes"/>
      <point x="217" y="677"/>
      <point x="203" y="670"/>
      <point x="195" y="654" type="curve" smooth="yes"/>
      <point x="125" y="502" type="line" smooth="yes"/>
      <point x="120" y="493"/>
      <point x="118" y="485"/>
      <point x="118" y="479" type="curve" smooth="yes"/>
      <point x="118" y="466"/>
      <point x="126" y="459"/>
      <point x="137" y="459" type="curve" smooth="yes"/>
      <point x="145" y="459"/>
      <point x="155" y="463"/>
    </contour>
  </outline>
</glyph>
<glyph name="threequarters" format="1">
  <advance width="1102"/>
  <unicode hex="00BE"/>
  <outline>
    <contour>
      <point x="183" y="183" type="curve" smooth="yes"/>
      <point x="261" y="183"/>
      <point x="354" y="216"/>
      <point x="354" y="350" type="curve" smooth="yes"/>
      <point x="354" y="405"/>
      <point x="317" y="459"/>
      <point x="250" y="474" type="curve"/>
      <point x="320" y="485"/>
      <point x="346" y="551"/>
      <point x="346" y="589" type="curve" smooth="yes"/>
      <point x="346" y="657"/>
      <point x="297" y="685"/>
      <point x="238" y="694" type="curve" smooth="yes"/>
      <point x="230" y="695"/>
      <point x="221" y="696"/>
      <point x="213" y="696" type="curve" smooth="yes"/>
      <point x="157" y="696"/>
      <point x="97" y="668"/>
      <point x="65" y="632" type="curve" smooth="yes"/>
      <point x="61" y="627"/>
      <point x="59" y="621"/>
      <point x="59" y="614" type="curve" smooth="yes"/>
      <point x="59" y="595"/>
      <point x="74" y="572"/>
      <point x="96" y="572" type="curve" smooth="yes"/>
      <point x="106" y="572"/>
      <point x="117" y="577"/>
      <point x="129" y="589" type="curve" smooth="yes"/>
      <point x="147" y="606"/>
      <point x="171" y="615"/>
      <point x="192" y="615" type="curve" smooth="yes"/>
      <point x="218" y="615"/>
      <point x="240" y="600"/>
      <point x="240" y="565" type="curve" smooth="yes"/>
      <point x="240" y="516"/>
      <point x="185" y="498"/>
      <point x="153" y="498" type="curve" smooth="yes"/>
      <point x="118" y="498"/>
      <point x="103" y="487"/>
      <point x="103" y="463" type="curve" smooth="yes"/>
      <point x="103" y="437"/>
      <point x="114" y="424"/>
      <point x="134" y="424" type="curve" smooth="yes"/>
      <point x="201" y="424"/>
      <point x="260" y="391"/>
      <point x="260" y="346" type="curve" smooth="yes"/>
      <point x="260" y="284"/>
      <point x="233" y="264"/>
      <point x="199" y="264" type="curve" smooth="yes"/>
      <point x="159" y="264"/>
      <point x="112" y="293"/>
      <point x="94" y="319" type="curve" smooth="yes"/>
      <point x="88" y="328"/>
      <point x="77" y="332"/>
      <point x="67" y="332" type="curve" smooth="yes"/>
      <point x="42" y="332"/>
      <point x="13" y="310"/>
      <point x="13" y="282" type="curve" smooth="yes"/>
      <point x="13" y="274"/>
      <point x="16" y="265"/>
      <point x="22" y="256" type="curve" smooth="yes"/>
      <point x="63" y="202"/>
      <point x="122" y="183"/>
    </contour>
    <contour>
      <point x="423" y="-29" type="curve" smooth="yes"/>
      <point x="680" y="575" type="line" smooth="yes"/>
      <point x="682" y="580"/>
      <point x="683" y="584"/>
      <point x="683" y="589" type="curve" smooth="yes"/>
      <point x="683" y="612"/>
      <point x="662" y="631"/>
      <point x="641" y="631" type="curve" smooth="yes"/>
      <point x="627" y="631"/>
      <point x="613" y="622"/>
      <point x="603" y="601" type="curve" smooth="yes"/>
      <point x="348" y="15" type="line" smooth="yes"/>
      <point x="345" y="9"/>
      <point x="344" y="4"/>
      <point x="344" y="-2" type="curve" smooth="yes"/>
      <point x="344" y="-28"/>
      <point x="371" y="-49"/>
      <point x="394" y="-49" type="curve" smooth="yes"/>
      <point x="406" y="-49"/>
      <point x="418" y="-43"/>
    </contour>
    <contour>
      <point x="834" y="-21" type="curve" smooth="yes"/>
      <point x="862" y="-21"/>
      <point x="876" y="-18"/>
      <point x="887" y="32" type="curve"/>
      <point x="897" y="61" type="line"/>
      <point x="904" y="61"/>
      <point x="941" y="63"/>
      <point x="949" y="63" type="curve" smooth="yes"/>
      <point x="974" y="64"/>
      <point x="987" y="88"/>
      <point x="987" y="110" type="curve" smooth="yes"/>
      <point x="987" y="127"/>
      <point x="979" y="142"/>
      <point x="962" y="142" type="curve" smooth="yes"/>
      <point x="961" y="142" type="line"/>
      <point x="961" y="142"/>
      <point x="929" y="143"/>
      <point x="913" y="143" type="curve"/>
      <point x="923" y="180"/>
      <point x="945" y="265"/>
      <point x="949" y="289" type="curve" smooth="yes"/>
      <point x="950" y="292"/>
      <point x="950" y="294"/>
      <point x="950" y="296" type="curve" smooth="yes"/>
      <point x="950" y="312"/>
      <point x="931" y="316"/>
      <point x="915" y="316" type="curve" smooth="yes"/>
      <point x="887" y="316"/>
      <point x="871" y="302"/>
      <point x="864" y="277" type="curve" smooth="yes"/>
      <point x="857" y="254"/>
      <point x="830" y="170"/>
      <point x="825" y="143" type="curve"/>
      <point x="749" y="143" type="line"/>
      <point x="785" y="261"/>
      <point x="815" y="357"/>
      <point x="839" y="440" type="curve" smooth="yes"/>
      <point x="840" y="443"/>
      <point x="840" y="446"/>
      <point x="840" y="449" type="curve" smooth="yes"/>
      <point x="840" y="468"/>
      <point x="819" y="478"/>
      <point x="797" y="478" type="curve" smooth="yes"/>
      <point x="778" y="478"/>
      <point x="760" y="471"/>
      <point x="755" y="455" type="curve" smooth="yes"/>
      <point x="730" y="378"/>
      <point x="672" y="210"/>
      <point x="651" y="132" type="curve" smooth="yes"/>
      <point x="647" y="117"/>
      <point x="645" y="105"/>
      <point x="645" y="95" type="curve" smooth="yes"/>
      <point x="645" y="71"/>
      <point x="658" y="62"/>
      <point x="679" y="61" type="curve" smooth="yes"/>
      <point x="679" y="61"/>
      <point x="782" y="60"/>
      <point x="805" y="60" type="curve"/>
      <point x="800" y="30" type="line" smooth="yes"/>
      <point x="798" y="22"/>
      <point x="797" y="15"/>
      <point x="797" y="8" type="curve" smooth="yes"/>
      <point x="797" y="-9"/>
      <point x="805" y="-20"/>
    </contour>
  </outline>
</glyph>
<glyph name="germandbls" format="1">
  <advance width="438"/>
  <unicode hex="00DF"/>
  <outline>
    <contour>
      <point x="249" y="71" type="curve" smooth="yes"/>
      <point x="227" y="71"/>
      <point x="184" y="82"/>
      <point x="170" y="82" type="curve" smooth="yes"/>
      <point x="158" y="82"/>
      <point x="154" y="79"/>
      <point x="152" y="74" type="curve" smooth="yes"/>
      <point x="149" y="63"/>
      <point x="145" y="50"/>
      <point x="145" y="39" type="curve" smooth="yes"/>
      <point x="145" y="19"/>
      <point x="160" y="2"/>
      <point x="234" y="-5" type="curve" smooth="yes"/>
      <point x="243" y="-6"/>
      <point x="252" y="-7"/>
      <point x="261" y="-7" type="curve" smooth="yes"/>
      <point x="355" y="-7"/>
      <point x="437" y="51"/>
      <point x="437" y="155" type="curve" smooth="yes"/>
      <point x="437" y="240"/>
      <point x="371" y="291"/>
      <point x="294" y="291" type="curve"/>
      <point x="379" y="296"/>
      <point x="448" y="334"/>
      <point x="448" y="424" type="curve" smooth="yes"/>
      <point x="448" y="507"/>
      <point x="370" y="552"/>
      <point x="285" y="552" type="curve" smooth="yes"/>
      <point x="256" y="552"/>
      <point x="229" y="548"/>
      <point x="207" y="539" type="curve" smooth="yes"/>
      <point x="36" y="469"/>
      <point x="16" y="209"/>
      <point x="16" y="-23" type="curve" smooth="yes"/>
      <point x="16" y="-48"/>
      <point x="41" y="-60"/>
      <point x="65" y="-60" type="curve" smooth="yes"/>
      <point x="95" y="-60"/>
      <point x="119" y="-44"/>
      <point x="119" y="-13" type="curve" smooth="yes"/>
      <point x="119" y="54" type="line" smooth="yes"/>
      <point x="119" y="221"/>
      <point x="122" y="474"/>
      <point x="286" y="474" type="curve" smooth="yes"/>
      <point x="326" y="474"/>
      <point x="359" y="458"/>
      <point x="359" y="421" type="curve" smooth="yes"/>
      <point x="359" y="360"/>
      <point x="319" y="340"/>
      <point x="256" y="340" type="curve" smooth="yes"/>
      <point x="221" y="340"/>
      <point x="215" y="328"/>
      <point x="215" y="289" type="curve" smooth="yes"/>
      <point x="215" y="267"/>
      <point x="227" y="256"/>
      <point x="243" y="250" type="curve" smooth="yes"/>
      <point x="302" y="222"/>
      <point x="347" y="242"/>
      <point x="347" y="167" type="curve" smooth="yes"/>
      <point x="347" y="105"/>
      <point x="304" y="71"/>
    </contour>
  </outline>
</glyph>
<glyph name="ae" format="1">
  <advance width="491"/>
  <unicode hex="00E6"/>
  <outline>
    <contour>
      <point x="354" y="343" type="move" name="top"/>
    </contour>
    <contour>
      <point x="363" y="0" type="move" name="ogonek"/>
    </contour>
    <contour>
      <point x="420" y="223" type="curve" smooth="yes"/>
      <point x="414" y="194"/>
      <point x="342" y="168"/>
      <point x="312" y="168" type="curve" smooth="yes"/>
      <point x="308" y="168" type="line"/>
      <point x="318" y="205"/>
      <point x="356" y="251"/>
      <point x="397" y="251" type="curve" smooth="yes"/>
      <point x="411" y="251"/>
      <point x="421" y="247"/>
      <point x="421" y="230" type="curve" smooth="yes"/>
      <point x="421" y="228"/>
      <point x="420" y="226"/>
    </contour>
    <contour>
      <point x="144" y="81" type="curve" smooth="yes"/>
      <point x="119" y="81"/>
      <point x="107" y="95"/>
      <point x="107" y="118" type="curve" smooth="yes"/>
      <point x="107" y="171"/>
      <point x="173" y="261"/>
      <point x="271" y="261" type="curve"/>
      <point x="244" y="240"/>
      <point x="225" y="190"/>
      <point x="217" y="141" type="curve" smooth="yes"/>
      <point x="214" y="123"/>
      <point x="186" y="81"/>
    </contour>
    <contour>
      <point x="223" y="73" type="curve"/>
      <point x="244" y="18"/>
      <point x="306" y="-6"/>
      <point x="358" y="-6" type="curve" smooth="yes"/>
      <point x="440" y="-6"/>
      <point x="523" y="42"/>
      <point x="555" y="86" type="curve" smooth="yes"/>
      <point x="561" y="94"/>
      <point x="564" y="102"/>
      <point x="564" y="109" type="curve" smooth="yes"/>
      <point x="564" y="126"/>
      <point x="548" y="138"/>
      <point x="533" y="138" type="curve" smooth="yes"/>
      <point x="527" y="138"/>
      <point x="521" y="136"/>
      <point x="516" y="132" type="curve" smooth="yes"/>
      <point x="478" y="94"/>
      <point x="415" y="74"/>
      <point x="372" y="74" type="curve" smooth="yes"/>
      <point x="369" y="74" type="line" smooth="yes"/>
      <point x="338" y="74"/>
      <point x="309" y="88"/>
      <point x="302" y="120" type="curve"/>
      <point x="318" y="120" type="line" smooth="yes"/>
      <point x="437" y="120"/>
      <point x="490" y="163"/>
      <point x="490" y="239" type="curve" smooth="yes"/>
      <point x="490" y="296"/>
      <point x="448" y="329"/>
      <point x="393" y="329" type="curve" smooth="yes"/>
      <point x="371" y="329"/>
      <point x="350" y="324"/>
      <point x="332" y="315" type="curve"/>
      <point x="331" y="323"/>
      <point x="327" y="337"/>
      <point x="296" y="337" type="curve" smooth="yes"/>
      <point x="166" y="337"/>
      <point x="5" y="271"/>
      <point x="5" y="103" type="curve" smooth="yes"/>
      <point x="5" y="62"/>
      <point x="25" y="2"/>
      <point x="93" y="-4" type="curve" smooth="yes"/>
      <point x="98" y="-4"/>
      <point x="103" y="-5"/>
      <point x="109" y="-5" type="curve" smooth="yes"/>
      <point x="142" y="-5"/>
      <point x="187" y="6"/>
    </contour>
  </outline>
</glyph>
<glyph name="oslash" format="1">
  <advance width="332"/>
  <unicode hex="00F8"/>
  <outline>
    <component base="o"/>
    <contour>
      <point x="7" y="-60" type="curve" smooth="yes"/>
      <point x="104" y="77"/>
      <point x="235" y="241"/>
      <point x="407" y="358" type="curve" smooth="yes"/>
      <point x="412" y="362"/>
      <point x="415" y="368"/>
      <point x="415" y="374" type="curve" smooth="yes"/>
      <point x="415" y="387"/>
      <point x="404" y="401"/>
      <point x="389" y="401" type="curve" smooth="yes"/>
      <point x="384" y="401"/>
      <point x="378" y="399"/>
      <point x="372" y="395" type="curve" smooth="yes"/>
      <point x="205" y="278"/>
      <point x="81" y="101"/>
      <point x="-15" y="-30" type="curve" smooth="yes"/>
      <point x="-20" y="-36"/>
      <point x="-22" y="-42"/>
      <point x="-22" y="-47" type="curve" smooth="yes"/>
      <point x="-22" y="-58"/>
      <point x="-12" y="-66"/>
      <point x="-4" y="-66" type="curve" smooth="yes"/>
      <point x="0" y="-66"/>
      <point x="4" y="-64"/>
    </contour>
  </outline>
</glyph>
<glyph name="Eng" format="1">
  <advance width="538"/>
  <unicode hex="014A"/>
  <outline>
    <contour>
      <point x="278" y="-62" type="curve"/>
      <point x="252" y="-130"/>
      <point x="171" y="-261"/>
      <point x="108" y="-261" type="curve" smooth="yes"/>
      <point x="102" y="-261"/>
      <point x="98" y="-259"/>
      <point x="99" y="-249" type="curve" smooth="yes"/>
      <point x="98" y="-223"/>
      <point x="137" y="-130"/>
    </contour>
    <contour>
      <point x="39" y="-274" type="curve" smooth="yes"/>
      <point x="39" y="-302"/>
      <point x="64" y="-320"/>
      <point x="107" y="-320" type="curve" smooth="yes"/>
      <point x="171" y="-320"/>
      <point x="300" y="-243"/>
      <point x="392" y="-24" type="curve"/>
      <point x="454" y="13"/>
      <point x="510" y="14"/>
      <point x="561" y="44" type="curve" smooth="yes"/>
      <point x="590" y="58"/>
      <point x="603" y="76"/>
      <point x="603" y="89" type="curve" smooth="yes"/>
      <point x="603" y="99"/>
      <point x="596" y="106"/>
      <point x="584" y="106" type="curve" smooth="yes"/>
      <point x="581" y="106"/>
      <point x="577" y="105"/>
      <point x="573" y="104" type="curve" smooth="yes"/>
      <point x="571" y="104" type="line" smooth="yes"/>
      <point x="549" y="104"/>
      <point x="457" y="72"/>
      <point x="405" y="43" type="curve"/>
      <point x="499" y="321"/>
      <point x="573" y="465"/>
      <point x="573" y="566" type="curve" smooth="yes"/>
      <point x="573" y="635"/>
      <point x="530" y="674"/>
      <point x="452" y="674" type="curve" smooth="yes"/>
      <point x="269" y="674"/>
      <point x="195" y="500"/>
      <point x="152" y="372" type="curve"/>
      <point x="178" y="468"/>
      <point x="199" y="557"/>
      <point x="199" y="597" type="curve" smooth="yes"/>
      <point x="199" y="644"/>
      <point x="151" y="673"/>
      <point x="107" y="673" type="curve" smooth="yes"/>
      <point x="101" y="673"/>
      <point x="96" y="672"/>
      <point x="90" y="671" type="curve" smooth="yes"/>
      <point x="-7" y="657"/>
      <point x="-77" y="584"/>
      <point x="-110" y="504" type="curve" smooth="yes"/>
      <point x="-113" y="497"/>
      <point x="-114" y="491"/>
      <point x="-114" y="485" type="curve" smooth="yes"/>
      <point x="-114" y="437"/>
      <point x="-35" y="409"/>
      <point x="-41" y="412" type="curve"/>
      <point x="-33" y="461"/>
      <point x="41" y="589"/>
      <point x="85" y="589" type="curve" smooth="yes"/>
      <point x="86" y="589" type="line" smooth="yes"/>
      <point x="103" y="589"/>
      <point x="106" y="560"/>
      <point x="106" y="542" type="curve" smooth="yes"/>
      <point x="106" y="533"/>
      <point x="105" y="527"/>
      <point x="105" y="527" type="curve"/>
      <point x="104.002" y="403.212"/>
      <point x="-33.5286" y="96.0525"/>
      <point x="-91.7019" y="-40.301" type="curve"/>
      <point x="-91.1066" y="-39.5815"/>
      <point x="-89.7625" y="-39"/>
      <point x="-89" y="-39" type="curve" smooth="yes"/>
      <point x="-80" y="-39"/>
      <point x="-51" y="-58"/>
      <point x="-20" y="-58" type="curve" smooth="yes"/>
      <point x="36" y="-58"/>
      <point x="37" y="-10"/>
      <point x="56" y="30" type="curve" smooth="yes"/>
      <point x="187" y="310"/>
      <point x="260" y="564"/>
      <point x="428" y="564" type="curve" smooth="yes"/>
      <point x="449" y="564"/>
      <point x="466" y="548"/>
      <point x="466" y="526" type="curve" smooth="yes"/>
      <point x="466" y="460"/>
      <point x="413" y="331"/>
      <point x="295" y="-2" type="curve"/>
      <point x="105" y="-94"/>
      <point x="39" y="-214"/>
    </contour>
    <contour>
      <point x="-91.7019" y="-40.301" type="curve"/>
      <point x="-91.8015" y="-40.5345"/>
      <point x="-91.9009" y="-40.7675"/>
      <point x="-92" y="-41" type="curve"/>
      <point x="-92" y="-40.7625"/>
      <point x="-91.8872" y="-40.5251"/>
    </contour>
  </outline>
</glyph>
<glyph name="eng" format="1">
  <advance width="321"/>
  <unicode hex="014B"/>
  <outline>
    <contour>
      <point x="169" y="-28" type="curve"/>
      <point x="148" y="-54"/>
      <point x="81" y="-120"/>
      <point x="58" y="-120" type="curve" smooth="yes"/>
      <point x="57.1637" y="-120"/>
      <point x="56.5023" y="-119.927"/>
      <point x="55.9426" y="-119.927" type="curve"/>
      <point x="56.8119" y="-121.171"/>
      <point x="56.3866" y="-123.307"/>
      <point x="55" y="-124" type="curve" smooth="yes"/>
      <point x="55" y="-124"/>
      <point x="54" y="-124"/>
      <point x="54" y="-123" type="curve" smooth="yes"/>
      <point x="54" y="-122.209"/>
      <point x="54.225" y="-121.046"/>
      <point x="54.7194" y="-119.553" type="curve" smooth="yes"/>
      <point x="54.4709" y="-119.415"/>
      <point x="54.2354" y="-119.235"/>
      <point x="54" y="-119" type="curve"/>
      <point x="54.3221" y="-119"/>
      <point x="54.6096" y="-119.046"/>
      <point x="54.8638" y="-119.13" type="curve" smooth="yes"/>
      <point x="59.7765" y="-105.117"/>
      <point x="86.9415" y="-64.5695"/>
    </contour>
    <contour>
      <point x="-21" y="-148" type="curve" smooth="yes"/>
      <point x="-21" y="-173"/>
      <point x="1" y="-192"/>
      <point x="38" y="-192" type="curve" smooth="yes"/>
      <point x="58" y="-192"/>
      <point x="86" y="-184"/>
      <point x="127" y="-154" type="curve" smooth="yes"/>
      <point x="175" y="-122"/>
      <point x="223" y="-68"/>
      <point x="259" y="17" type="curve"/>
      <point x="303" y="43"/>
      <point x="346" y="42"/>
      <point x="385" y="62" type="curve" smooth="yes"/>
      <point x="408" y="73"/>
      <point x="418" y="88"/>
      <point x="418" y="98" type="curve" smooth="yes"/>
      <point x="418" y="105"/>
      <point x="412" y="110"/>
      <point x="403" y="110" type="curve" smooth="yes"/>
      <point x="401" y="110"/>
      <point x="398" y="110"/>
      <point x="395" y="109" type="curve" smooth="yes"/>
      <point x="393" y="109" type="line" smooth="yes"/>
      <point x="377" y="109"/>
      <point x="308" y="88"/>
      <point x="271" y="70" type="curve"/>
      <point x="299" y="146" type="line" smooth="yes"/>
      <point x="308" y="168"/>
      <point x="328" y="233"/>
      <point x="328" y="278" type="curve" smooth="yes"/>
      <point x="328" y="306"/>
      <point x="324" y="328"/>
      <point x="290" y="328" type="curve" smooth="yes"/>
      <point x="243" y="328"/>
      <point x="206" y="262"/>
      <point x="123" y="171" type="curve"/>
      <point x="137" y="204"/>
      <point x="149" y="253"/>
      <point x="159" y="287" type="curve" smooth="yes"/>
      <point x="160" y="292"/>
      <point x="161" y="297"/>
      <point x="161" y="301" type="curve" smooth="yes"/>
      <point x="161" y="319"/>
      <point x="150" y="332"/>
      <point x="130" y="332" type="curve" smooth="yes"/>
      <point x="102" y="332"/>
      <point x="84" y="313"/>
      <point x="77" y="292" type="curve" smooth="yes"/>
      <point x="57" y="227"/>
      <point x="38" y="150"/>
      <point x="38" y="81" type="curve" smooth="yes"/>
      <point x="38" y="58" type="line" smooth="yes"/>
      <point x="38" y="28"/>
      <point x="42" y="0"/>
      <point x="73" y="0" type="curve" smooth="yes"/>
      <point x="92" y="0"/>
      <point x="101" y="25"/>
      <point x="124" y="59" type="curve"/>
      <point x="173" y="108"/>
      <point x="185" y="157"/>
      <point x="247" y="205" type="curve"/>
      <point x="224" y="152"/>
      <point x="224" y="146"/>
      <point x="220" y="141" type="curve" smooth="yes"/>
      <point x="181" y="39" type="line"/>
      <point x="130" y="17"/>
      <point x="99" y="-3"/>
      <point x="76" y="-23" type="curve" smooth="yes"/>
      <point x="51" y="-41"/>
      <point x="34" y="-60"/>
      <point x="12" y="-78" type="curve"/>
      <point x="-10" y="-104"/>
      <point x="-21" y="-129"/>
    </contour>
    <contour>
      <point x="54.8638" y="-119.13" type="curve" smooth="yes"/>
      <point x="55.3357" y="-119.285"/>
      <point x="55.6927" y="-119.569"/>
      <point x="55.9426" y="-119.927" type="curve"/>
      <point x="55.4789" y="-119.866"/>
      <point x="55.085" y="-119.756"/>
      <point x="54.7194" y="-119.553" type="curve" smooth="yes"/>
      <point x="54.7652" y="-119.415"/>
      <point x="54.8133" y="-119.274"/>
    </contour>
  </outline>
</glyph>
<glyph name="oe" format="1">
  <advance width="471"/>
  <unicode hex="0153"/>
  <outline>
    <contour>
      <point x="278" y="146" type="curve"/>
      <point x="278" y="202"/>
      <point x="324" y="251"/>
      <point x="366" y="251" type="curve" smooth="yes"/>
      <point x="380" y="251"/>
      <point x="390" y="248"/>
      <point x="390" y="231" type="curve" smooth="yes"/>
      <point x="390" y="198"/>
      <point x="311" y="166"/>
    </contour>
    <contour>
      <point x="103" y="131" type="curve" smooth="yes"/>
      <point x="109" y="187"/>
      <point x="113" y="248"/>
      <point x="158" y="248" type="curve" smooth="yes"/>
      <point x="190" y="248"/>
      <point x="188" y="199"/>
      <point x="188" y="188" type="curve" smooth="yes"/>
      <point x="188" y="116"/>
      <point x="162" y="78"/>
      <point x="133" y="77" type="curve" smooth="yes"/>
      <point x="115" y="80"/>
      <point x="102" y="96"/>
      <point x="102" y="121" type="curve" smooth="yes"/>
      <point x="102" y="124"/>
      <point x="103" y="127"/>
    </contour>
    <contour>
      <point x="209" y="41" type="curve"/>
      <point x="237" y="6"/>
      <point x="290" y="-6"/>
      <point x="332" y="-6" type="curve" smooth="yes"/>
      <point x="414" y="-6"/>
      <point x="492" y="42"/>
      <point x="525" y="86" type="curve" smooth="yes"/>
      <point x="531" y="94"/>
      <point x="533" y="102"/>
      <point x="533" y="109" type="curve" smooth="yes"/>
      <point x="533" y="126"/>
      <point x="518" y="139"/>
      <point x="503" y="139" type="curve" smooth="yes"/>
      <point x="497" y="139"/>
      <point x="491" y="137"/>
      <point x="486" y="132" type="curve" smooth="yes"/>
      <point x="446" y="95"/>
      <point x="388" y="73"/>
      <point x="344" y="73" type="curve" smooth="yes"/>
      <point x="317" y="73"/>
      <point x="295" y="81"/>
      <point x="285" y="99" type="curve"/>
      <point x="403" y="130"/>
      <point x="460" y="160"/>
      <point x="460" y="239" type="curve" smooth="yes"/>
      <point x="460" y="296"/>
      <point x="417" y="329"/>
      <point x="362" y="329" type="curve" smooth="yes"/>
      <point x="314" y="329"/>
      <point x="274" y="303"/>
      <point x="244" y="268" type="curve"/>
      <point x="224" y="301"/>
      <point x="199" y="326"/>
      <point x="156" y="326" type="curve" smooth="yes"/>
      <point x="106" y="326"/>
      <point x="20" y="278"/>
      <point x="10" y="151" type="curve" smooth="yes"/>
      <point x="9" y="142"/>
      <point x="9" y="133"/>
      <point x="9" y="125" type="curve" smooth="yes"/>
      <point x="9" y="42"/>
      <point x="50" y="2"/>
      <point x="122" y="2" type="curve" smooth="yes"/>
      <point x="156" y="2"/>
      <point x="184" y="22"/>
    </contour>
  </outline>
</glyph>
<glyph name="ogonek" format="1">
  <advance width="183"/>
  <unicode hex="02DB"/>
  <outline>
    <contour>
      <point x="127" y="0" type="move" name="_ogonek"/>
    </contour>
    <contour>
      <point x="40" y="-94" type="curve" smooth="yes"/>
      <point x="40" y="-140"/>
      <point x="61" y="-157"/>
      <point x="99" y="-157" type="curve" smooth="yes"/>
      <point x="123" y="-157"/>
      <point x="164" y="-153"/>
      <point x="193" y="-130" type="curve" smooth="yes"/>
      <point x="200" y="-124"/>
      <point x="200" y="-108"/>
      <point x="200" y="-98" type="curve" smooth="yes"/>
      <point x="200" y="-88"/>
      <point x="195" y="-70"/>
      <point x="189" y="-70" type="curve" smooth="yes"/>
      <point x="188" y="-70"/>
      <point x="187" y="-70"/>
      <point x="186" y="-71" type="curve" smooth="yes"/>
      <point x="157" y="-90"/>
      <point x="137" y="-91"/>
      <point x="131" y="-92" type="curve" smooth="yes"/>
      <point x="115" y="-90"/>
      <point x="109" y="-85"/>
      <point x="109" y="-72" type="curve" smooth="yes"/>
      <point x="109" y="-36"/>
      <point x="149" y="3"/>
      <point x="156" y="11" type="curve"/>
      <point x="134" y="11" type="line"/>
      <point x="75" y="-15"/>
      <point x="40" y="-47"/>
    </contour>
  </outline>
</glyph>
<glyph name="uni0311" format="1">
  <advance width="205"/>
  <unicode hex="0311"/>
  <outline>
    <contour>
      <point x="91" y="343" type="move" name="_top"/>
    </contour>
    <contour>
      <point x="237" y="465" type="curve" smooth="yes"/>
      <point x="237" y="523"/>
      <point x="197" y="562"/>
      <point x="131" y="562" type="curve" smooth="yes"/>
      <point x="62" y="562"/>
      <point x="-15" y="515"/>
      <point x="-15" y="442" type="curve" smooth="yes"/>
      <point x="-15" y="432"/>
      <point x="-3" y="428"/>
      <point x="10" y="428" type="curve" smooth="yes"/>
      <point x="23" y="428"/>
      <point x="37" y="432"/>
      <point x="39" y="439" type="curve" smooth="yes"/>
      <point x="54" y="477"/>
      <point x="90" y="492"/>
      <point x="122" y="492" type="curve" smooth="yes"/>
      <point x="125" y="492" type="line" smooth="yes"/>
      <point x="155" y="492"/>
      <point x="181" y="478"/>
      <point x="181" y="458" type="curve" smooth="yes"/>
      <point x="181" y="453"/>
      <point x="178" y="448"/>
      <point x="178" y="443" type="curve" smooth="yes"/>
      <point x="178" y="432"/>
      <point x="190" y="426"/>
      <point x="203" y="426" type="curve" smooth="yes"/>
      <point x="218" y="426"/>
      <point x="234" y="433"/>
      <point x="236" y="449" type="curve" smooth="yes"/>
      <point x="237" y="455"/>
      <point x="237" y="460"/>
    </contour>
  </outline>
</glyph>
<glyph name="Omega" format="1">
  <advance width="904"/>
  <unicode hex="03A9"/>
  <outline>
    <contour>
      <point x="701" y="47" type="curve"/>
      <point x="807" y="119"/>
      <point x="862" y="245"/>
      <point x="862" y="367" type="curve" smooth="yes"/>
      <point x="862" y="536"/>
      <point x="756" y="697"/>
      <point x="536" y="697" type="curve" smooth="yes"/>
      <point x="290" y="697"/>
      <point x="157" y="494"/>
      <point x="157" y="304" type="curve" smooth="yes"/>
      <point x="157" y="210"/>
      <point x="190" y="119"/>
      <point x="258" y="58" type="curve"/>
      <point x="201" y="58" type="line" smooth="yes"/>
      <point x="177" y="58" type="line" smooth="yes"/>
      <point x="158" y="58"/>
      <point x="150" y="40"/>
      <point x="150" y="26" type="curve" smooth="yes"/>
      <point x="150" y="9"/>
      <point x="169" y="-16"/>
      <point x="194" y="-17" type="curve" smooth="yes"/>
      <point x="206" y="-17"/>
      <point x="218" y="-18"/>
      <point x="230" y="-18" type="curve" smooth="yes"/>
      <point x="282" y="-18"/>
      <point x="340" y="-15"/>
      <point x="458" y="-13" type="curve"/>
      <point x="452" y="50" type="line"/>
      <point x="305" y="64"/>
      <point x="239" y="175"/>
      <point x="239" y="294" type="curve" smooth="yes"/>
      <point x="239" y="448"/>
      <point x="349" y="617"/>
      <point x="534" y="617" type="curve" smooth="yes"/>
      <point x="696" y="617"/>
      <point x="778" y="486"/>
      <point x="778" y="350" type="curve" smooth="yes"/>
      <point x="778" y="211"/>
      <point x="693" y="67"/>
      <point x="521" y="50" type="curve"/>
      <point x="508" y="-12" type="line"/>
      <point x="586" y="-22"/>
      <point x="652" y="-28"/>
      <point x="707" y="-28" type="curve" smooth="yes"/>
      <point x="733" y="-28"/>
      <point x="757" y="-27"/>
      <point x="778" y="-24" type="curve" smooth="yes"/>
      <point x="798" y="-21"/>
      <point x="820" y="-1"/>
      <point x="823" y="11" type="curve" smooth="yes"/>
      <point x="824" y="15"/>
      <point x="824" y="20"/>
      <point x="824" y="24" type="curve" smooth="yes"/>
      <point x="824" y="38"/>
      <point x="819" y="51"/>
      <point x="800" y="51" type="curve" smooth="yes"/>
      <point x="797" y="51" type="line" smooth="yes"/>
      <point x="771" y="48"/>
      <point x="741" y="47"/>
    </contour>
  </outline>
</glyph>
<glyph name="emdash" format="1">
  <advance width="383"/>
  <unicode hex="2014"/>
  <outline>
    <contour>
      <point x="54" y="124" type="curve" smooth="yes"/>
      <point x="318" y="124" type="line" smooth="yes"/>
      <point x="352" y="124"/>
      <point x="367" y="145"/>
      <point x="367" y="177" type="curve" smooth="yes"/>
      <point x="367" y="206"/>
      <point x="346" y="214"/>
      <point x="319" y="214" type="curve" smooth="yes"/>
      <point x="63" y="214" type="line" smooth="yes"/>
      <point x="32" y="214"/>
      <point x="14" y="201"/>
      <point x="14" y="168" type="curve" smooth="yes"/>
      <point x="14" y="145"/>
      <point x="29" y="124"/>
    </contour>
  </outline>
</glyph>
<glyph name="quotesinglbase" format="1">
  <advance width="307"/>
  <unicode hex="201A"/>
  <outline>
    <contour>
      <point x="123" y="-92" type="curve" smooth="yes"/>
      <point x="123" y="-108"/>
      <point x="130" y="-116"/>
      <point x="150" y="-116" type="curve" smooth="yes"/>
      <point x="167" y="-116"/>
      <point x="177" y="-107"/>
      <point x="182" y="-90" type="curve" smooth="yes"/>
      <point x="188" y="-71"/>
      <point x="229" y="56"/>
      <point x="241" y="97" type="curve" smooth="yes"/>
      <point x="242" y="102"/>
      <point x="243" y="106"/>
      <point x="243" y="110" type="curve" smooth="yes"/>
      <point x="243" y="132"/>
      <point x="223" y="139"/>
      <point x="199" y="139" type="curve" smooth="yes"/>
      <point x="177" y="139"/>
      <point x="157" y="133"/>
      <point x="152" y="104" type="curve" smooth="yes"/>
      <point x="145" y="65"/>
      <point x="130" y="-28"/>
      <point x="124" y="-80" type="curve" smooth="yes"/>
      <point x="124" y="-84"/>
      <point x="123" y="-88"/>
    </contour>
  </outline>
</glyph>
<glyph name="quotedblbase" format="1">
  <advance width="449"/>
  <unicode hex="201E"/>
  <outline>
    <contour>
      <point x="123" y="-92" type="curve" smooth="yes"/>
      <point x="123" y="-108"/>
      <point x="130" y="-116"/>
      <point x="150" y="-116" type="curve" smooth="yes"/>
      <point x="167" y="-116"/>
      <point x="177" y="-107"/>
      <point x="182" y="-90" type="curve" smooth="yes"/>
      <point x="188" y="-71"/>
      <point x="229" y="56"/>
      <point x="241" y="97" type="curve" smooth="yes"/>
      <point x="242" y="102"/>
      <point x="243" y="106"/>
      <point x="243" y="110" type="curve" smooth="yes"/>
      <point x="243" y="132"/>
      <point x="223" y="139"/>
      <point x="199" y="139" type="curve" smooth="yes"/>
      <point x="177" y="139"/>
      <point x="157" y="133"/>
      <point x="152" y="104" type="curve" smooth="yes"/>
      <point x="145" y="65"/>
      <point x="130" y="-28"/>
      <point x="124" y="-80" type="curve" smooth="yes"/>
      <point x="124" y="-84"/>
      <point x="123" y="-88"/>
    </contour>
    <contour>
      <point x="265" y="-91" type="curve" smooth="yes"/>
      <point x="265" y="-107"/>
      <point x="274" y="-117"/>
      <point x="294" y="-117" type="curve" smooth="yes"/>
      <point x="310" y="-117"/>
      <point x="321" y="-107"/>
      <point x="328" y="-88" type="curve" smooth="yes"/>
      <point x="348" y="-37"/>
      <point x="379" y="54"/>
      <point x="395" y="96" type="curve" smooth="yes"/>
      <point x="397" y="101"/>
      <point x="397" y="105"/>
      <point x="397" y="109" type="curve" smooth="yes"/>
      <point x="397" y="134"/>
      <point x="370" y="142"/>
      <point x="345" y="142" type="curve" smooth="yes"/>
      <point x="321" y="142"/>
      <point x="306" y="131"/>
      <point x="302" y="112" type="curve" smooth="yes"/>
      <point x="290" y="53"/>
      <point x="272" y="-47"/>
      <point x="266" y="-79" type="curve" smooth="yes"/>
      <point x="265" y="-83"/>
      <point x="265" y="-87"/>
    </contour>
  </outline>
</glyph>
<glyph name="bullet" format="1">
  <advance width="383"/>
  <unicode hex="2022"/>
  <outline>
    <contour>
      <point x="175" y="80" type="curve" smooth="yes"/>
      <point x="254" y="80"/>
      <point x="301" y="149"/>
      <point x="301" y="229" type="curve" smooth="yes"/>
      <point x="301" y="285"/>
      <point x="272" y="312"/>
      <point x="219" y="312" type="curve" smooth="yes"/>
      <point x="144" y="312"/>
      <point x="80" y="262"/>
      <point x="80" y="186" type="curve" smooth="yes"/>
      <point x="80" y="124"/>
      <point x="113" y="80"/>
    </contour>
  </outline>
</glyph>
<glyph name="fraction" format="1">
  <advance width="265"/>
  <unicode hex="2044"/>
  <outline>
    <contour>
      <point x="93" y="-29" type="curve" smooth="yes"/>
      <point x="349" y="575" type="line" smooth="yes"/>
      <point x="351" y="580"/>
      <point x="352" y="586"/>
      <point x="352" y="591" type="curve" smooth="yes"/>
      <point x="352" y="613"/>
      <point x="333" y="631"/>
      <point x="312" y="631" type="curve" smooth="yes"/>
      <point x="298" y="631"/>
      <point x="283" y="622"/>
      <point x="274" y="601" type="curve" smooth="yes"/>
      <point x="18" y="15" type="line" smooth="yes"/>
      <point x="15" y="9"/>
      <point x="14" y="4"/>
      <point x="14" y="-2" type="curve" smooth="yes"/>
      <point x="14" y="-28"/>
      <point x="41" y="-49"/>
      <point x="64" y="-49" type="curve" smooth="yes"/>
      <point x="76" y="-49"/>
      <point x="88" y="-43"/>
    </contour>
  </outline>
</glyph>
<glyph name="trademark" format="1">
  <advance width="937"/>
  <unicode hex="2122"/>
  <outline>
    <contour>
      <point x="646" y="348" type="curve" smooth="yes"/>
      <point x="638" y="348"/>
      <point x="635" y="353"/>
      <point x="635" y="362" type="curve" smooth="yes"/>
      <point x="635" y="395"/>
      <point x="674" y="478"/>
      <point x="682" y="531" type="curve" smooth="yes"/>
      <point x="682" y="535"/>
      <point x="683" y="538"/>
      <point x="683" y="542" type="curve" smooth="yes"/>
      <point x="683" y="582"/>
      <point x="653" y="608"/>
      <point x="611" y="608" type="curve" smooth="yes"/>
      <point x="567" y="608"/>
      <point x="543" y="572"/>
      <point x="525" y="529" type="curve"/>
      <point x="525" y="534" type="line" smooth="yes"/>
      <point x="525" y="572"/>
      <point x="505" y="609"/>
      <point x="463" y="609" type="curve" smooth="yes"/>
      <point x="460" y="609"/>
      <point x="457" y="608"/>
      <point x="454" y="608" type="curve" smooth="yes"/>
      <point x="411" y="603"/>
      <point x="369" y="541"/>
      <point x="337" y="473" type="curve"/>
      <point x="345" y="497"/>
      <point x="364" y="554"/>
      <point x="364" y="568" type="curve" smooth="yes"/>
      <point x="364" y="606"/>
      <point x="280" y="608"/>
      <point x="229" y="608" type="curve" smooth="yes"/>
      <point x="135" y="608"/>
      <point x="27" y="601"/>
      <point x="27" y="504" type="curve" smooth="yes"/>
      <point x="27" y="483"/>
      <point x="38" y="468"/>
      <point x="61" y="468" type="curve" smooth="yes"/>
      <point x="86" y="468"/>
      <point x="104" y="481"/>
      <point x="104" y="504" type="curve" smooth="yes"/>
      <point x="104" y="539"/>
      <point x="134" y="548"/>
      <point x="183" y="548" type="curve"/>
      <point x="119" y="353" type="line" smooth="yes"/>
      <point x="116" y="344"/>
      <point x="114" y="336"/>
      <point x="114" y="329" type="curve" smooth="yes"/>
      <point x="114" y="311"/>
      <point x="125" y="300"/>
      <point x="145" y="300" type="curve" smooth="yes"/>
      <point x="169" y="300"/>
      <point x="175" y="317"/>
      <point x="181" y="341" type="curve" smooth="yes"/>
      <point x="197" y="414"/>
      <point x="216" y="467"/>
      <point x="237" y="548" type="curve"/>
      <point x="256" y="548"/>
      <point x="289" y="547"/>
      <point x="309" y="544" type="curve"/>
      <point x="309" y="544"/>
      <point x="265" y="415"/>
      <point x="248" y="340" type="curve" smooth="yes"/>
      <point x="248" y="338"/>
      <point x="247" y="336"/>
      <point x="247" y="334" type="curve" smooth="yes"/>
      <point x="247" y="312"/>
      <point x="274" y="297"/>
      <point x="296" y="297" type="curve" smooth="yes"/>
      <point x="316" y="297"/>
      <point x="324" y="317"/>
      <point x="330" y="332" type="curve" smooth="yes"/>
      <point x="342" y="360"/>
      <point x="354" y="393"/>
      <point x="365" y="423" type="curve" smooth="yes"/>
      <point x="390" y="487"/>
      <point x="415" y="530"/>
      <point x="439" y="537" type="curve" smooth="yes"/>
      <point x="443" y="537" type="line" smooth="yes"/>
      <point x="453" y="537"/>
      <point x="457" y="529"/>
      <point x="457" y="512" type="curve" smooth="yes"/>
      <point x="457" y="505"/>
      <point x="457" y="497"/>
      <point x="455" y="487" type="curve" smooth="yes"/>
      <point x="447" y="445"/>
      <point x="431" y="393"/>
      <point x="417" y="339" type="curve" smooth="yes"/>
      <point x="417" y="337"/>
      <point x="416" y="335"/>
      <point x="416" y="333" type="curve" smooth="yes"/>
      <point x="416" y="314"/>
      <point x="433" y="297"/>
      <point x="462" y="297" type="curve" smooth="yes"/>
      <point x="480" y="297"/>
      <point x="489" y="309"/>
      <point x="494" y="325" type="curve" smooth="yes"/>
      <point x="518" y="405"/>
      <point x="536" y="533"/>
      <point x="592" y="533" type="curve" smooth="yes"/>
      <point x="607" y="533"/>
      <point x="613" y="519"/>
      <point x="613" y="510" type="curve" smooth="yes"/>
      <point x="613" y="460"/>
      <point x="581" y="397"/>
      <point x="573" y="353" type="curve" smooth="yes"/>
      <point x="572" y="349"/>
      <point x="572" y="345"/>
      <point x="572" y="342" type="curve" smooth="yes"/>
      <point x="572" y="313"/>
      <point x="601" y="292"/>
      <point x="637" y="292" type="curve" smooth="yes"/>
      <point x="677" y="292"/>
      <point x="713" y="323"/>
      <point x="737" y="359" type="curve" smooth="yes"/>
      <point x="742" y="367"/>
      <point x="744" y="375"/>
      <point x="744" y="381" type="curve" smooth="yes"/>
      <point x="744" y="397"/>
      <point x="730" y="406"/>
      <point x="716" y="406" type="curve" smooth="yes"/>
      <point x="708" y="406"/>
      <point x="700" y="403"/>
      <point x="695" y="396" type="curve" smooth="yes"/>
      <point x="681" y="374"/>
      <point x="663" y="348"/>
    </contour>
  </outline>
</glyph>
<glyph name="summation" format="1">
  <advance width="815"/>
  <unicode hex="2211"/>
  <outline>
    <contour>
      <point x="416" y="658" type="curve" smooth="yes"/>
      <point x="325" y="658"/>
      <point x="263" y="649"/>
      <point x="206" y="627" type="curve" smooth="yes"/>
      <point x="186" y="619"/>
      <point x="178" y="603"/>
      <point x="178" y="587" type="curve" smooth="yes"/>
      <point x="178" y="566"/>
      <point x="193" y="546"/>
      <point x="218" y="546" type="curve" smooth="yes"/>
      <point x="224" y="546"/>
      <point x="230" y="547"/>
      <point x="236" y="549" type="curve" smooth="yes"/>
      <point x="238" y="549"/>
      <point x="240" y="548"/>
      <point x="242" y="548" type="curve" smooth="yes"/>
      <point x="258" y="548"/>
      <point x="271" y="560"/>
      <point x="289" y="564" type="curve"/>
      <point x="434" y="317" type="line"/>
      <point x="251" y="156"/>
      <point x="133" y="65"/>
      <point x="133" y="23" type="curve" smooth="yes"/>
      <point x="133" y="1"/>
      <point x="153" y="-12"/>
      <point x="173" y="-12" type="curve" smooth="yes"/>
      <point x="190" y="-12"/>
      <point x="211" y="-4"/>
      <point x="230" y="16" type="curve"/>
      <point x="318" y="-12"/>
      <point x="411" y="-45"/>
      <point x="518" y="-45" type="curve" smooth="yes"/>
      <point x="586" y="-45"/>
      <point x="659" y="-32"/>
      <point x="740" y="4" type="curve" smooth="yes"/>
      <point x="755" y="10"/>
      <point x="761" y="23"/>
      <point x="761" y="37" type="curve" smooth="yes"/>
      <point x="761" y="59"/>
      <point x="746" y="82"/>
      <point x="724" y="82" type="curve" smooth="yes"/>
      <point x="720" y="82"/>
      <point x="715" y="81"/>
      <point x="710" y="79" type="curve" smooth="yes"/>
      <point x="651" y="54"/>
      <point x="594" y="36"/>
      <point x="522" y="36" type="curve" smooth="yes"/>
      <point x="459" y="36"/>
      <point x="384" y="50"/>
      <point x="286" y="86" type="curve"/>
      <point x="353" y="150"/>
      <point x="445" y="213"/>
      <point x="544" y="303" type="curve"/>
      <point x="385" y="574" type="line"/>
      <point x="432" y="574" type="line" smooth="yes"/>
      <point x="490" y="574"/>
      <point x="583" y="571"/>
      <point x="651" y="571" type="curve" smooth="yes"/>
      <point x="689" y="571" type="line" smooth="yes"/>
      <point x="777" y="573"/>
      <point x="785" y="589"/>
      <point x="785" y="613" type="curve" smooth="yes"/>
      <point x="785" y="645"/>
      <point x="766" y="659"/>
      <point x="742" y="659" type="curve" smooth="yes"/>
      <point x="737" y="659" type="line" smooth="yes"/>
      <point x="691" y="655"/>
      <point x="653" y="654"/>
      <point x="617" y="654" type="curve" smooth="yes"/>
      <point x="553" y="654"/>
      <point x="496" y="658"/>
    </contour>
  </outline>
</glyph>
<glyph name="infinity" format="1">
  <advance width="695"/>
  <unicode hex="221E"/>
  <outline>
    <contour>
      <point x="592" y="243" type="curve" smooth="yes"/>
      <point x="592" y="232"/>
      <point x="569" y="204"/>
      <point x="542" y="204" type="curve" smooth="yes"/>
      <point x="513" y="204"/>
      <point x="466" y="232"/>
      <point x="462" y="238" type="curve"/>
      <point x="478" y="259"/>
      <point x="516" y="304"/>
      <point x="545" y="304" type="curve" smooth="yes"/>
      <point x="574" y="304"/>
      <point x="592" y="280"/>
    </contour>
    <contour>
      <point x="225" y="245" type="curve" smooth="yes"/>
      <point x="225" y="283"/>
      <point x="252" y="296"/>
      <point x="269" y="296" type="curve" smooth="yes"/>
      <point x="308" y="295"/>
      <point x="342" y="269"/>
      <point x="359" y="240" type="curve"/>
      <point x="346" y="221"/>
      <point x="323" y="190"/>
      <point x="285" y="190" type="curve" smooth="yes"/>
      <point x="277" y="190" type="line" smooth="yes"/>
      <point x="248" y="196"/>
      <point x="225" y="204"/>
    </contour>
    <contour>
      <point x="142" y="234" type="curve" smooth="yes"/>
      <point x="142" y="144"/>
      <point x="192" y="106"/>
      <point x="270" y="106" type="curve" smooth="yes"/>
      <point x="339" y="106"/>
      <point x="381" y="146"/>
      <point x="410" y="194" type="curve"/>
      <point x="448" y="145"/>
      <point x="478" y="102"/>
      <point x="539" y="102" type="curve" smooth="yes"/>
      <point x="640" y="102"/>
      <point x="673" y="182"/>
      <point x="673" y="259" type="curve" smooth="yes"/>
      <point x="673" y="336"/>
      <point x="626" y="392"/>
      <point x="557" y="392" type="curve" smooth="yes"/>
      <point x="481" y="392"/>
      <point x="426" y="327"/>
      <point x="411" y="288" type="curve"/>
      <point x="377" y="339"/>
      <point x="339" y="387"/>
      <point x="267" y="387" type="curve" smooth="yes"/>
      <point x="180" y="387"/>
      <point x="142" y="321"/>
    </contour>
  </outline>
</glyph>
